<svg width="1600" height="960" viewBox="0 0 1600 960" fill="none" xmlns="http://www.w3.org/2000/svg">
<g clip-path="url(#clip0)">
<rect width="1600" height="960" fill="#0A0B16"/>
<ellipse cx="30.9532" cy="30.4451" rx="0.537385" ry="0.537388" fill="white"/>
<circle cx="111.561" cy="30.4451" r="0.537388" fill="white"/>
<circle cx="192.169" cy="30.4451" r="0.537388" fill="white"/>
<ellipse cx="272.777" cy="30.4451" rx="0.537381" ry="0.537388" fill="white"/>
<circle cx="353.385" cy="30.4451" r="0.537388" fill="white"/>
<circle cx="433.993" cy="30.4451" r="0.537388" fill="white"/>
<ellipse cx="514.601" cy="30.4451" rx="0.537329" ry="0.537388" fill="white"/>
<ellipse cx="595.209" cy="30.4451" rx="0.537373" ry="0.537388" fill="white"/>
<ellipse cx="675.817" cy="30.4451" rx="0.537403" ry="0.537388" fill="white"/>
<ellipse cx="756.425" cy="30.4451" rx="0.537403" ry="0.537388" fill="white"/>
<circle cx="68.5702" cy="84.1838" r="0.537388" fill="white"/>
<ellipse cx="149.178" cy="84.1838" rx="0.537399" ry="0.537388" fill="white"/>
<circle cx="229.786" cy="84.1838" r="0.537388" fill="white"/>
<ellipse cx="310.394" cy="84.1838" rx="0.537373" ry="0.537388" fill="white"/>
<ellipse cx="391.002" cy="84.1838" rx="0.537403" ry="0.537388" fill="white"/>
<circle cx="471.61" cy="84.1838" r="0.537388" fill="white"/>
<ellipse cx="552.218" cy="84.1838" rx="0.537403" ry="0.537388" fill="white"/>
<ellipse cx="632.826" cy="84.1838" rx="0.537373" ry="0.537388" fill="white"/>
<ellipse cx="713.434" cy="84.1838" rx="0.537403" ry="0.537388" fill="white"/>
<ellipse cx="794.042" cy="84.1838" rx="0.537403" ry="0.537388" fill="white"/>
<ellipse cx="52.4486" cy="137.922" rx="0.537388" ry="0.537388" fill="white"/>
<circle cx="133.057" cy="137.922" r="0.537388" fill="white"/>
<circle cx="213.664" cy="137.922" r="0.537388" fill="white"/>
<ellipse cx="294.272" cy="137.922" rx="0.537403" ry="0.537388" fill="white"/>
<circle cx="374.88" cy="137.922" r="0.537388" fill="white"/>
<circle cx="455.488" cy="137.922" r="0.537388" fill="white"/>
<ellipse cx="536.096" cy="137.922" rx="0.537373" ry="0.537388" fill="white"/>
<ellipse cx="616.704" cy="137.922" rx="0.537403" ry="0.537388" fill="white"/>
<ellipse cx="697.312" cy="137.922" rx="0.537403" ry="0.537388" fill="white"/>
<ellipse cx="777.92" cy="137.922" rx="0.537373" ry="0.537388" fill="white"/>
<circle cx="68.5702" cy="191.661" r="0.537388" fill="white"/>
<ellipse cx="149.178" cy="191.661" rx="0.537399" ry="0.537388" fill="white"/>
<circle cx="229.786" cy="191.661" r="0.537388" fill="white"/>
<ellipse cx="310.394" cy="191.661" rx="0.537373" ry="0.537388" fill="white"/>
<ellipse cx="391.002" cy="191.661" rx="0.537403" ry="0.537388" fill="white"/>
<circle cx="471.61" cy="191.661" r="0.537388" fill="white"/>
<ellipse cx="552.218" cy="191.661" rx="0.537403" ry="0.537388" fill="white"/>
<ellipse cx="632.826" cy="191.661" rx="0.537373" ry="0.537388" fill="white"/>
<ellipse cx="713.434" cy="191.661" rx="0.537403" ry="0.537388" fill="white"/>
<ellipse cx="794.042" cy="191.661" rx="0.537403" ry="0.537388" fill="white"/>
<ellipse cx="41.7008" cy="246.474" rx="0.537386" ry="0.537388" fill="white"/>
<circle cx="122.309" cy="246.474" r="0.537388" fill="white"/>
<ellipse cx="202.917" cy="246.474" rx="0.537381" ry="0.537388" fill="white"/>
<ellipse cx="283.525" cy="246.474" rx="0.53741" ry="0.537388" fill="white"/>
<circle cx="364.133" cy="246.474" r="0.537388" fill="white"/>
<circle cx="444.741" cy="246.474" r="0.537388" fill="white"/>
<ellipse cx="525.349" cy="246.474" rx="0.537432" ry="0.537388" fill="white"/>
<ellipse cx="605.957" cy="246.474" rx="0.537373" ry="0.537388" fill="white"/>
<ellipse cx="686.564" cy="246.474" rx="0.537403" ry="0.537388" fill="white"/>
<ellipse cx="767.172" cy="246.474" rx="0.537373" ry="0.537388" fill="white"/>
<ellipse cx="73.944" cy="300.213" rx="0.537386" ry="0.537388" fill="white"/>
<circle cx="154.552" cy="300.213" r="0.537388" fill="white"/>
<ellipse cx="235.16" cy="300.213" rx="0.53741" ry="0.537388" fill="white"/>
<circle cx="315.768" cy="300.213" r="0.537388" fill="white"/>
<circle cx="396.376" cy="300.213" r="0.537388" fill="white"/>
<ellipse cx="476.984" cy="300.213" rx="0.537432" ry="0.537388" fill="white"/>
<ellipse cx="557.592" cy="300.213" rx="0.537314" ry="0.537388" fill="white"/>
<ellipse cx="638.2" cy="300.213" rx="0.537403" ry="0.537388" fill="white"/>
<ellipse cx="718.808" cy="300.213" rx="0.537373" ry="0.537388" fill="white"/>
<ellipse cx="63.1963" cy="353.951" rx="0.537386" ry="0.537388" fill="white"/>
<ellipse cx="143.804" cy="353.951" rx="0.537373" ry="0.537388" fill="white"/>
<circle cx="224.412" cy="353.951" r="0.537388" fill="white"/>
<ellipse cx="305.02" cy="353.951" rx="0.537417" ry="0.537388" fill="white"/>
<circle cx="385.628" cy="353.951" r="0.537388" fill="white"/>
<ellipse cx="466.236" cy="353.951" rx="0.537329" ry="0.537388" fill="white"/>
<ellipse cx="546.844" cy="353.951" rx="0.537432" ry="0.537388" fill="white"/>
<ellipse cx="627.452" cy="353.951" rx="0.537403" ry="0.537388" fill="white"/>
<ellipse cx="708.06" cy="353.951" rx="0.537403" ry="0.537388" fill="white"/>
<ellipse cx="788.668" cy="353.951" rx="0.537373" ry="0.537388" fill="white"/>
<ellipse cx="95.4395" cy="407.69" rx="0.537392" ry="0.537373" fill="white"/>
<ellipse cx="176.047" cy="407.69" rx="0.537388" ry="0.537373" fill="white"/>
<ellipse cx="256.655" cy="407.69" rx="0.53741" ry="0.537373" fill="white"/>
<ellipse cx="337.263" cy="407.69" rx="0.537388" ry="0.537373" fill="white"/>
<circle cx="417.871" cy="407.69" r="0.537373" fill="white"/>
<ellipse cx="498.479" cy="407.69" rx="0.537432" ry="0.537373" fill="white"/>
<ellipse cx="579.087" cy="407.69" rx="0.537403" ry="0.537373" fill="white"/>
<ellipse cx="659.695" cy="407.69" rx="0.537403" ry="0.537373" fill="white"/>
<circle cx="740.303" cy="407.69" r="0.537373" fill="white"/>
<ellipse cx="820.911" cy="407.69" rx="0.53758" ry="0.537373" fill="white"/>
<ellipse cx="52.4486" cy="461.429" rx="0.537388" ry="0.537373" fill="white"/>
<ellipse cx="133.057" cy="461.429" rx="0.537388" ry="0.537373" fill="white"/>
<ellipse cx="213.664" cy="461.429" rx="0.537388" ry="0.537373" fill="white"/>
<ellipse cx="294.272" cy="461.429" rx="0.537403" ry="0.537373" fill="white"/>
<ellipse cx="374.88" cy="461.429" rx="0.537388" ry="0.537373" fill="white"/>
<ellipse cx="455.488" cy="461.429" rx="0.537388" ry="0.537373" fill="white"/>
<circle cx="536.096" cy="461.429" r="0.537373" fill="white"/>
<ellipse cx="616.704" cy="461.429" rx="0.537403" ry="0.537373" fill="white"/>
<ellipse cx="697.312" cy="461.429" rx="0.537403" ry="0.537373" fill="white"/>
<circle cx="777.92" cy="461.429" r="0.537373" fill="white"/>
<ellipse cx="68.5702" cy="515.167" rx="0.537388" ry="0.537373" fill="white"/>
<ellipse cx="149.178" cy="515.167" rx="0.537399" ry="0.537373" fill="white"/>
<ellipse cx="229.786" cy="515.167" rx="0.537388" ry="0.537373" fill="white"/>
<circle cx="310.394" cy="515.167" r="0.537373" fill="white"/>
<ellipse cx="391.002" cy="515.167" rx="0.537403" ry="0.537373" fill="white"/>
<ellipse cx="471.61" cy="515.167" rx="0.537388" ry="0.537373" fill="white"/>
<ellipse cx="552.218" cy="515.167" rx="0.537403" ry="0.537373" fill="white"/>
<circle cx="632.826" cy="515.167" r="0.537373" fill="white"/>
<ellipse cx="713.434" cy="515.167" rx="0.537403" ry="0.537373" fill="white"/>
<ellipse cx="794.042" cy="515.167" rx="0.537403" ry="0.537373" fill="white"/>
<ellipse cx="106.187" cy="574.28" rx="0.537384" ry="0.537373" fill="white"/>
<ellipse cx="186.795" cy="574.28" rx="0.537388" ry="0.537373" fill="white"/>
<ellipse cx="267.403" cy="574.28" rx="0.537381" ry="0.537373" fill="white"/>
<ellipse cx="348.011" cy="574.28" rx="0.537388" ry="0.537373" fill="white"/>
<ellipse cx="428.619" cy="574.28" rx="0.537432" ry="0.537373" fill="white"/>
<ellipse cx="509.227" cy="574.28" rx="0.537329" ry="0.537373" fill="white"/>
<ellipse cx="589.835" cy="574.28" rx="0.537403" ry="0.537373" fill="white"/>
<circle cx="670.443" cy="574.28" r="0.537373" fill="white"/>
<circle cx="751.051" cy="574.28" r="0.537373" fill="white"/>
<ellipse cx="831.659" cy="574.28" rx="0.537403" ry="0.537373" fill="white"/>
<ellipse cx="73.944" cy="633.392" rx="0.537386" ry="0.537403" fill="white"/>
<ellipse cx="154.552" cy="633.392" rx="0.537388" ry="0.537403" fill="white"/>
<ellipse cx="235.16" cy="633.392" rx="0.53741" ry="0.537403" fill="white"/>
<ellipse cx="315.768" cy="633.392" rx="0.537388" ry="0.537403" fill="white"/>
<ellipse cx="396.376" cy="633.392" rx="0.537388" ry="0.537403" fill="white"/>
<ellipse cx="476.984" cy="633.392" rx="0.537432" ry="0.537403" fill="white"/>
<ellipse cx="557.592" cy="633.392" rx="0.537314" ry="0.537403" fill="white"/>
<circle cx="638.2" cy="633.392" r="0.537403" fill="white"/>
<ellipse cx="718.808" cy="633.392" rx="0.537373" ry="0.537403" fill="white"/>
<ellipse cx="799.416" cy="633.392" rx="0.537373" ry="0.537403" fill="white"/>
<ellipse cx="116.935" cy="691.43" rx="0.537384" ry="0.537403" fill="white"/>
<ellipse cx="197.543" cy="691.43" rx="0.537381" ry="0.537403" fill="white"/>
<ellipse cx="278.151" cy="691.43" rx="0.53741" ry="0.537403" fill="white"/>
<ellipse cx="358.759" cy="691.43" rx="0.537373" ry="0.537403" fill="white"/>
<ellipse cx="439.367" cy="691.43" rx="0.537373" ry="0.537403" fill="white"/>
<ellipse cx="519.975" cy="691.43" rx="0.537388" ry="0.537403" fill="white"/>
<circle cx="600.583" cy="691.43" r="0.537403" fill="white"/>
<ellipse cx="681.19" cy="691.43" rx="0.537373" ry="0.537403" fill="white"/>
<circle cx="761.799" cy="691.43" r="0.537403" fill="white"/>
<ellipse cx="84.6918" cy="750.543" rx="0.537386" ry="0.537403" fill="white"/>
<ellipse cx="165.3" cy="750.543" rx="0.537388" ry="0.537403" fill="white"/>
<ellipse cx="245.908" cy="750.543" rx="0.537395" ry="0.537403" fill="white"/>
<ellipse cx="326.516" cy="750.543" rx="0.537388" ry="0.537403" fill="white"/>
<ellipse cx="407.123" cy="750.543" rx="0.537373" ry="0.537403" fill="white"/>
<ellipse cx="487.731" cy="750.543" rx="0.537373" ry="0.537403" fill="white"/>
<circle cx="568.339" cy="750.543" r="0.537403" fill="white"/>
<circle cx="648.947" cy="750.543" r="0.537403" fill="white"/>
<ellipse cx="729.555" cy="750.543" rx="0.537373" ry="0.537403" fill="white"/>
<circle cx="810.163" cy="750.543" r="0.537403" fill="white"/>
<ellipse cx="52.4486" cy="809.655" rx="0.537388" ry="0.537373" fill="white"/>
<ellipse cx="133.057" cy="809.655" rx="0.537388" ry="0.537373" fill="white"/>
<ellipse cx="213.664" cy="809.655" rx="0.537388" ry="0.537373" fill="white"/>
<ellipse cx="294.272" cy="809.655" rx="0.537403" ry="0.537373" fill="white"/>
<ellipse cx="374.88" cy="809.655" rx="0.537388" ry="0.537373" fill="white"/>
<ellipse cx="455.488" cy="809.655" rx="0.537388" ry="0.537373" fill="white"/>
<circle cx="536.096" cy="809.655" r="0.537373" fill="white"/>
<ellipse cx="616.704" cy="809.655" rx="0.537403" ry="0.537373" fill="white"/>
<ellipse cx="697.312" cy="809.655" rx="0.537403" ry="0.537373" fill="white"/>
<circle cx="777.92" cy="809.655" r="0.537373" fill="white"/>
<ellipse cx="84.6918" cy="868.768" rx="0.537386" ry="0.537373" fill="white"/>
<ellipse cx="165.3" cy="868.768" rx="0.537388" ry="0.537373" fill="white"/>
<ellipse cx="245.908" cy="868.768" rx="0.537395" ry="0.537373" fill="white"/>
<ellipse cx="326.516" cy="868.768" rx="0.537388" ry="0.537373" fill="white"/>
<circle cx="407.123" cy="868.768" r="0.537373" fill="white"/>
<circle cx="487.731" cy="868.768" r="0.537373" fill="white"/>
<ellipse cx="568.339" cy="868.768" rx="0.537403" ry="0.537373" fill="white"/>
<ellipse cx="648.947" cy="868.768" rx="0.537403" ry="0.537373" fill="white"/>
<circle cx="729.555" cy="868.768" r="0.537373" fill="white"/>
<ellipse cx="63.1963" cy="922.506" rx="0.537386" ry="0.537373" fill="white"/>
<circle cx="143.804" cy="922.506" r="0.537373" fill="white"/>
<ellipse cx="224.412" cy="922.506" rx="0.537388" ry="0.537373" fill="white"/>
<ellipse cx="305.02" cy="922.506" rx="0.537417" ry="0.537373" fill="white"/>
<ellipse cx="385.628" cy="922.506" rx="0.537388" ry="0.537373" fill="white"/>
<ellipse cx="466.236" cy="922.506" rx="0.537329" ry="0.537373" fill="white"/>
<ellipse cx="546.844" cy="922.506" rx="0.537432" ry="0.537373" fill="white"/>
<ellipse cx="627.452" cy="922.506" rx="0.537403" ry="0.537373" fill="white"/>
<ellipse cx="708.06" cy="922.506" rx="0.537403" ry="0.537373" fill="white"/>
<ellipse cx="708.06" cy="922.506" rx="0.537403" ry="0.537373" fill="white"/>
<ellipse cx="810.163" cy="868.768" rx="0.537403" ry="0.537373" fill="white"/>
<ellipse cx="57.8225" cy="35.8189" rx="0.537387" ry="0.537388" fill="white"/>
<circle cx="138.43" cy="35.8189" r="0.537388" fill="white"/>
<ellipse cx="219.038" cy="35.8189" rx="0.537381" ry="0.537388" fill="white"/>
<ellipse cx="299.646" cy="35.8189" rx="0.537358" ry="0.537388" fill="white"/>
<circle cx="380.254" cy="35.8189" r="0.537388" fill="white"/>
<ellipse cx="460.862" cy="35.8189" rx="0.537329" ry="0.537388" fill="white"/>
<ellipse cx="541.47" cy="35.8189" rx="0.537403" ry="0.537388" fill="white"/>
<ellipse cx="622.078" cy="35.8189" rx="0.537373" ry="0.537388" fill="white"/>
<ellipse cx="702.686" cy="35.8189" rx="0.537373" ry="0.537388" fill="white"/>
<ellipse cx="783.294" cy="35.8189" rx="0.537403" ry="0.537388" fill="white"/>
<ellipse cx="95.4395" cy="89.5576" rx="0.537392" ry="0.537388" fill="white"/>
<circle cx="176.047" cy="89.5576" r="0.537388" fill="white"/>
<ellipse cx="256.655" cy="89.5576" rx="0.53741" ry="0.537388" fill="white"/>
<circle cx="337.263" cy="89.5576" r="0.537388" fill="white"/>
<ellipse cx="417.871" cy="89.5576" rx="0.537373" ry="0.537388" fill="white"/>
<ellipse cx="498.479" cy="89.5576" rx="0.537432" ry="0.537388" fill="white"/>
<ellipse cx="579.087" cy="89.5576" rx="0.537403" ry="0.537388" fill="white"/>
<ellipse cx="659.695" cy="89.5576" rx="0.537403" ry="0.537388" fill="white"/>
<ellipse cx="740.303" cy="89.5576" rx="0.537373" ry="0.537388" fill="white"/>
<ellipse cx="820.911" cy="89.5576" rx="0.53758" ry="0.537388" fill="white"/>
<circle cx="79.3178" cy="143.296" r="0.537388" fill="white"/>
<circle cx="159.926" cy="143.296" r="0.537388" fill="white"/>
<ellipse cx="240.534" cy="143.296" rx="0.537366" ry="0.537388" fill="white"/>
<ellipse cx="321.142" cy="143.296" rx="0.537373" ry="0.537388" fill="white"/>
<circle cx="401.75" cy="143.296" r="0.537388" fill="white"/>
<circle cx="482.358" cy="143.296" r="0.537388" fill="white"/>
<ellipse cx="562.965" cy="143.296" rx="0.537344" ry="0.537388" fill="white"/>
<ellipse cx="643.573" cy="143.296" rx="0.537373" ry="0.537388" fill="white"/>
<ellipse cx="724.181" cy="143.296" rx="0.537403" ry="0.537388" fill="white"/>
<ellipse cx="804.789" cy="143.296" rx="0.537403" ry="0.537388" fill="white"/>
<ellipse cx="95.4395" cy="197.035" rx="0.537392" ry="0.537388" fill="white"/>
<circle cx="176.047" cy="197.035" r="0.537388" fill="white"/>
<ellipse cx="256.655" cy="197.035" rx="0.53741" ry="0.537388" fill="white"/>
<circle cx="337.263" cy="197.035" r="0.537388" fill="white"/>
<ellipse cx="417.871" cy="197.035" rx="0.537373" ry="0.537388" fill="white"/>
<ellipse cx="498.479" cy="197.035" rx="0.537432" ry="0.537388" fill="white"/>
<ellipse cx="579.087" cy="197.035" rx="0.537403" ry="0.537388" fill="white"/>
<ellipse cx="659.695" cy="197.035" rx="0.537403" ry="0.537388" fill="white"/>
<ellipse cx="740.303" cy="197.035" rx="0.537373" ry="0.537388" fill="white"/>
<ellipse cx="820.911" cy="197.035" rx="0.53758" ry="0.537388" fill="white"/>
<circle cx="68.5702" cy="251.848" r="0.537388" fill="white"/>
<ellipse cx="149.178" cy="251.848" rx="0.537399" ry="0.537388" fill="white"/>
<circle cx="229.786" cy="251.848" r="0.537388" fill="white"/>
<ellipse cx="310.394" cy="251.848" rx="0.537373" ry="0.537388" fill="white"/>
<ellipse cx="391.002" cy="251.848" rx="0.537403" ry="0.537388" fill="white"/>
<circle cx="471.61" cy="251.848" r="0.537388" fill="white"/>
<ellipse cx="552.218" cy="251.848" rx="0.537403" ry="0.537388" fill="white"/>
<ellipse cx="632.826" cy="251.848" rx="0.537373" ry="0.537388" fill="white"/>
<ellipse cx="713.434" cy="251.848" rx="0.537403" ry="0.537388" fill="white"/>
<ellipse cx="794.042" cy="251.848" rx="0.537403" ry="0.537388" fill="white"/>
<circle cx="100.813" cy="305.587" r="0.537388" fill="white"/>
<circle cx="181.421" cy="305.587" r="0.537388" fill="white"/>
<ellipse cx="262.029" cy="305.587" rx="0.537381" ry="0.537388" fill="white"/>
<ellipse cx="342.637" cy="305.587" rx="0.537403" ry="0.537388" fill="white"/>
<circle cx="423.245" cy="305.587" r="0.537388" fill="white"/>
<circle cx="503.853" cy="305.587" r="0.537388" fill="white"/>
<ellipse cx="584.461" cy="305.587" rx="0.537373" ry="0.537388" fill="white"/>
<ellipse cx="665.069" cy="305.587" rx="0.537403" ry="0.537388" fill="white"/>
<ellipse cx="745.677" cy="305.587" rx="0.537403" ry="0.537388" fill="white"/>
<ellipse cx="90.0656" cy="359.325" rx="0.537381" ry="0.537388" fill="white"/>
<ellipse cx="170.674" cy="359.325" rx="0.537395" ry="0.537388" fill="white"/>
<ellipse cx="251.281" cy="359.325" rx="0.537358" ry="0.537388" fill="white"/>
<circle cx="331.889" cy="359.325" r="0.537388" fill="white"/>
<circle cx="412.497" cy="359.325" r="0.537388" fill="white"/>
<circle cx="493.105" cy="359.325" r="0.537388" fill="white"/>
<ellipse cx="573.713" cy="359.325" rx="0.537432" ry="0.537388" fill="white"/>
<ellipse cx="654.321" cy="359.325" rx="0.537373" ry="0.537388" fill="white"/>
<ellipse cx="734.929" cy="359.325" rx="0.537403" ry="0.537388" fill="white"/>
<ellipse cx="815.537" cy="359.325" rx="0.537285" ry="0.537388" fill="white"/>
<ellipse cx="122.309" cy="413.064" rx="0.537388" ry="0.537373" fill="white"/>
<ellipse cx="202.917" cy="413.064" rx="0.537381" ry="0.537373" fill="white"/>
<ellipse cx="283.525" cy="413.064" rx="0.53741" ry="0.537373" fill="white"/>
<ellipse cx="364.133" cy="413.064" rx="0.537388" ry="0.537373" fill="white"/>
<ellipse cx="444.741" cy="413.064" rx="0.537388" ry="0.537373" fill="white"/>
<ellipse cx="525.349" cy="413.064" rx="0.537432" ry="0.537373" fill="white"/>
<circle cx="605.957" cy="413.064" r="0.537373" fill="white"/>
<ellipse cx="686.564" cy="413.064" rx="0.537403" ry="0.537373" fill="white"/>
<circle cx="767.172" cy="413.064" r="0.537373" fill="white"/>
<ellipse cx="847.78" cy="411.989" rx="0.537255" ry="0.537373" fill="white"/>
<ellipse cx="79.3178" cy="466.802" rx="0.537388" ry="0.537403" fill="white"/>
<ellipse cx="159.926" cy="466.802" rx="0.537388" ry="0.537403" fill="white"/>
<ellipse cx="240.534" cy="466.802" rx="0.537366" ry="0.537403" fill="white"/>
<ellipse cx="321.142" cy="466.802" rx="0.537373" ry="0.537403" fill="white"/>
<ellipse cx="401.75" cy="466.802" rx="0.537388" ry="0.537403" fill="white"/>
<ellipse cx="482.358" cy="466.802" rx="0.537388" ry="0.537403" fill="white"/>
<ellipse cx="562.965" cy="466.802" rx="0.537344" ry="0.537403" fill="white"/>
<ellipse cx="643.573" cy="466.802" rx="0.537373" ry="0.537403" fill="white"/>
<circle cx="724.181" cy="466.802" r="0.537403" fill="white"/>
<circle cx="804.789" cy="466.802" r="0.537403" fill="white"/>
<ellipse cx="95.4395" cy="520.541" rx="0.537392" ry="0.537403" fill="white"/>
<ellipse cx="176.047" cy="520.541" rx="0.537388" ry="0.537403" fill="white"/>
<ellipse cx="256.655" cy="520.541" rx="0.53741" ry="0.537403" fill="white"/>
<ellipse cx="337.263" cy="520.541" rx="0.537388" ry="0.537403" fill="white"/>
<ellipse cx="417.871" cy="520.541" rx="0.537373" ry="0.537403" fill="white"/>
<ellipse cx="498.479" cy="520.541" rx="0.537432" ry="0.537403" fill="white"/>
<circle cx="579.087" cy="520.541" r="0.537403" fill="white"/>
<circle cx="659.695" cy="520.541" r="0.537403" fill="white"/>
<ellipse cx="740.303" cy="520.541" rx="0.537373" ry="0.537403" fill="white"/>
<ellipse cx="820.911" cy="520.541" rx="0.53758" ry="0.537403" fill="white"/>
<ellipse cx="133.057" cy="579.654" rx="0.537388" ry="0.537373" fill="white"/>
<ellipse cx="213.664" cy="579.654" rx="0.537388" ry="0.537373" fill="white"/>
<ellipse cx="294.272" cy="579.654" rx="0.537403" ry="0.537373" fill="white"/>
<ellipse cx="374.88" cy="579.654" rx="0.537388" ry="0.537373" fill="white"/>
<ellipse cx="455.488" cy="579.654" rx="0.537388" ry="0.537373" fill="white"/>
<circle cx="536.096" cy="579.654" r="0.537373" fill="white"/>
<ellipse cx="616.704" cy="579.654" rx="0.537403" ry="0.537373" fill="white"/>
<ellipse cx="697.312" cy="579.654" rx="0.537403" ry="0.537373" fill="white"/>
<circle cx="777.92" cy="579.654" r="0.537373" fill="white"/>
<circle cx="858.528" cy="578.579" r="0.537403" fill="white"/>
<ellipse cx="100.813" cy="638.766" rx="0.537388" ry="0.537373" fill="white"/>
<ellipse cx="181.421" cy="638.766" rx="0.537388" ry="0.537373" fill="white"/>
<ellipse cx="262.029" cy="638.766" rx="0.537381" ry="0.537373" fill="white"/>
<ellipse cx="342.637" cy="638.766" rx="0.537403" ry="0.537373" fill="white"/>
<ellipse cx="423.245" cy="638.766" rx="0.537388" ry="0.537373" fill="white"/>
<ellipse cx="503.853" cy="638.766" rx="0.537388" ry="0.537373" fill="white"/>
<circle cx="584.461" cy="638.766" r="0.537373" fill="white"/>
<ellipse cx="665.069" cy="638.766" rx="0.537403" ry="0.537373" fill="white"/>
<ellipse cx="745.677" cy="638.766" rx="0.537403" ry="0.537373" fill="white"/>
<ellipse cx="826.285" cy="638.766" rx="0.537403" ry="0.537373" fill="white"/>
<circle cx="143.804" cy="696.804" r="0.537373" fill="white"/>
<ellipse cx="224.412" cy="696.804" rx="0.537388" ry="0.537373" fill="white"/>
<ellipse cx="305.02" cy="696.804" rx="0.537417" ry="0.537373" fill="white"/>
<ellipse cx="385.628" cy="696.804" rx="0.537388" ry="0.537373" fill="white"/>
<ellipse cx="466.236" cy="696.804" rx="0.537329" ry="0.537373" fill="white"/>
<ellipse cx="546.844" cy="696.804" rx="0.537432" ry="0.537373" fill="white"/>
<ellipse cx="627.452" cy="696.804" rx="0.537403" ry="0.537373" fill="white"/>
<ellipse cx="708.06" cy="696.804" rx="0.537403" ry="0.537373" fill="white"/>
<circle cx="788.668" cy="696.804" r="0.537373" fill="white"/>
<ellipse cx="111.561" cy="755.917" rx="0.537388" ry="0.537403" fill="white"/>
<ellipse cx="192.169" cy="755.917" rx="0.537388" ry="0.537403" fill="white"/>
<ellipse cx="272.777" cy="755.917" rx="0.537381" ry="0.537403" fill="white"/>
<ellipse cx="353.385" cy="755.917" rx="0.537388" ry="0.537403" fill="white"/>
<ellipse cx="433.993" cy="755.917" rx="0.537388" ry="0.537403" fill="white"/>
<ellipse cx="514.601" cy="755.917" rx="0.537329" ry="0.537403" fill="white"/>
<ellipse cx="595.209" cy="755.917" rx="0.537373" ry="0.537403" fill="white"/>
<circle cx="675.817" cy="755.917" r="0.537403" fill="white"/>
<circle cx="756.425" cy="755.917" r="0.537403" fill="white"/>
<circle cx="837.033" cy="755.917" r="0.537403" fill="white"/>
<ellipse cx="79.3178" cy="815.029" rx="0.537388" ry="0.537403" fill="white"/>
<ellipse cx="159.926" cy="815.029" rx="0.537388" ry="0.537403" fill="white"/>
<ellipse cx="240.534" cy="815.029" rx="0.537366" ry="0.537403" fill="white"/>
<ellipse cx="321.142" cy="815.029" rx="0.537373" ry="0.537403" fill="white"/>
<ellipse cx="401.75" cy="815.029" rx="0.537388" ry="0.537403" fill="white"/>
<ellipse cx="482.358" cy="815.029" rx="0.537388" ry="0.537403" fill="white"/>
<ellipse cx="562.965" cy="815.029" rx="0.537344" ry="0.537403" fill="white"/>
<ellipse cx="643.573" cy="815.029" rx="0.537373" ry="0.537403" fill="white"/>
<circle cx="724.181" cy="815.029" r="0.537403" fill="white"/>
<circle cx="804.789" cy="815.029" r="0.537403" fill="white"/>
<ellipse cx="111.561" cy="874.141" rx="0.537388" ry="0.537373" fill="white"/>
<ellipse cx="192.169" cy="874.141" rx="0.537388" ry="0.537373" fill="white"/>
<ellipse cx="272.777" cy="874.141" rx="0.537381" ry="0.537373" fill="white"/>
<ellipse cx="353.385" cy="874.141" rx="0.537388" ry="0.537373" fill="white"/>
<ellipse cx="433.993" cy="874.141" rx="0.537388" ry="0.537373" fill="white"/>
<ellipse cx="514.601" cy="874.141" rx="0.537329" ry="0.537373" fill="white"/>
<circle cx="595.209" cy="874.141" r="0.537373" fill="white"/>
<ellipse cx="675.817" cy="874.141" rx="0.537403" ry="0.537373" fill="white"/>
<ellipse cx="756.425" cy="874.141" rx="0.537403" ry="0.537373" fill="white"/>
<ellipse cx="90.0656" cy="927.88" rx="0.537381" ry="0.537373" fill="white"/>
<ellipse cx="170.674" cy="927.88" rx="0.537395" ry="0.537373" fill="white"/>
<ellipse cx="251.281" cy="927.88" rx="0.537358" ry="0.537373" fill="white"/>
<ellipse cx="331.889" cy="927.88" rx="0.537388" ry="0.537373" fill="white"/>
<ellipse cx="412.497" cy="927.88" rx="0.537388" ry="0.537373" fill="white"/>
<ellipse cx="493.105" cy="927.88" rx="0.537388" ry="0.537373" fill="white"/>
<ellipse cx="573.713" cy="927.88" rx="0.537432" ry="0.537373" fill="white"/>
<circle cx="654.321" cy="927.88" r="0.537373" fill="white"/>
<ellipse cx="734.929" cy="927.88" rx="0.537403" ry="0.537373" fill="white"/>
<ellipse cx="734.929" cy="927.88" rx="0.537403" ry="0.537373" fill="white"/>
<ellipse cx="837.033" cy="874.141" rx="0.537403" ry="0.537373" fill="white"/>
<ellipse cx="6.23337" cy="3.57569" rx="0.537389" ry="0.537388" fill="white"/>
<ellipse cx="86.8413" cy="3.57569" rx="0.537392" ry="0.537388" fill="white"/>
<ellipse cx="167.449" cy="3.57569" rx="0.537373" ry="0.537388" fill="white"/>
<ellipse cx="248.057" cy="3.57569" rx="0.537417" ry="0.537388" fill="white"/>
<circle cx="328.665" cy="3.57569" r="0.537388" fill="white"/>
<ellipse cx="409.273" cy="3.57569" rx="0.537373" ry="0.537388" fill="white"/>
<ellipse cx="489.881" cy="3.57569" rx="0.537403" ry="0.537388" fill="white"/>
<ellipse cx="570.489" cy="3.57569" rx="0.537432" ry="0.537388" fill="white"/>
<ellipse cx="651.097" cy="3.57569" rx="0.537373" ry="0.537388" fill="white"/>
<ellipse cx="731.705" cy="3.57569" rx="0.537403" ry="0.537388" fill="white"/>
<ellipse cx="0.85953" cy="57.3144" rx="0.537386" ry="0.537388" fill="white"/>
<ellipse cx="81.4674" cy="57.3144" rx="0.537386" ry="0.537388" fill="white"/>
<ellipse cx="162.075" cy="57.3144" rx="0.537403" ry="0.537388" fill="white"/>
<ellipse cx="242.683" cy="57.3144" rx="0.537366" ry="0.537388" fill="white"/>
<circle cx="323.291" cy="57.3144" r="0.537388" fill="white"/>
<circle cx="403.899" cy="57.3144" r="0.537388" fill="white"/>
<ellipse cx="484.507" cy="57.3144" rx="0.537432" ry="0.537388" fill="white"/>
<ellipse cx="565.115" cy="57.3144" rx="0.537403" ry="0.537388" fill="white"/>
<ellipse cx="645.723" cy="57.3144" rx="0.537373" ry="0.537388" fill="white"/>
<ellipse cx="726.331" cy="57.3144" rx="0.537373" ry="0.537388" fill="white"/>
<ellipse cx="38.4766" cy="111.053" rx="0.537386" ry="0.537388" fill="white"/>
<circle cx="119.085" cy="111.053" r="0.537388" fill="white"/>
<circle cx="199.693" cy="111.053" r="0.537388" fill="white"/>
<ellipse cx="280.3" cy="111.053" rx="0.537366" ry="0.537388" fill="white"/>
<ellipse cx="360.908" cy="111.053" rx="0.537373" ry="0.537388" fill="white"/>
<ellipse cx="441.516" cy="111.053" rx="0.537403" ry="0.537388" fill="white"/>
<ellipse cx="522.124" cy="111.053" rx="0.537432" ry="0.537388" fill="white"/>
<ellipse cx="602.732" cy="111.053" rx="0.537373" ry="0.537388" fill="white"/>
<ellipse cx="683.34" cy="111.053" rx="0.537403" ry="0.537388" fill="white"/>
<ellipse cx="763.948" cy="111.053" rx="0.537373" ry="0.537388" fill="white"/>
<ellipse cx="22.355" cy="164.792" rx="0.537386" ry="0.537388" fill="white"/>
<circle cx="102.963" cy="164.792" r="0.537388" fill="white"/>
<circle cx="183.571" cy="164.792" r="0.537388" fill="white"/>
<ellipse cx="264.179" cy="164.792" rx="0.537381" ry="0.537388" fill="white"/>
<circle cx="344.787" cy="164.792" r="0.537388" fill="white"/>
<ellipse cx="425.395" cy="164.792" rx="0.537432" ry="0.537388" fill="white"/>
<circle cx="506.003" cy="164.792" r="0.537388" fill="white"/>
<ellipse cx="586.611" cy="164.792" rx="0.537403" ry="0.537388" fill="white"/>
<ellipse cx="667.219" cy="164.792" rx="0.537373" ry="0.537388" fill="white"/>
<ellipse cx="747.826" cy="164.792" rx="0.537373" ry="0.537388" fill="white"/>
<ellipse cx="38.4766" cy="218.53" rx="0.537386" ry="0.537388" fill="white"/>
<circle cx="119.085" cy="218.53" r="0.537388" fill="white"/>
<circle cx="199.693" cy="218.53" r="0.537388" fill="white"/>
<ellipse cx="280.3" cy="218.53" rx="0.537366" ry="0.537388" fill="white"/>
<ellipse cx="360.908" cy="218.53" rx="0.537373" ry="0.537388" fill="white"/>
<ellipse cx="441.516" cy="218.53" rx="0.537403" ry="0.537388" fill="white"/>
<ellipse cx="522.124" cy="218.53" rx="0.537432" ry="0.537388" fill="white"/>
<ellipse cx="602.732" cy="218.53" rx="0.537373" ry="0.537388" fill="white"/>
<ellipse cx="683.34" cy="218.53" rx="0.537403" ry="0.537388" fill="white"/>
<ellipse cx="763.948" cy="218.53" rx="0.537373" ry="0.537388" fill="white"/>
<ellipse cx="11.6073" cy="273.343" rx="0.537386" ry="0.537388" fill="white"/>
<ellipse cx="92.2152" cy="273.343" rx="0.537379" ry="0.537388" fill="white"/>
<circle cx="172.823" cy="273.343" r="0.537388" fill="white"/>
<circle cx="253.431" cy="273.343" r="0.537388" fill="white"/>
<circle cx="334.039" cy="273.343" r="0.537388" fill="white"/>
<circle cx="414.647" cy="273.343" r="0.537388" fill="white"/>
<ellipse cx="495.255" cy="273.343" rx="0.537329" ry="0.537388" fill="white"/>
<ellipse cx="575.863" cy="273.343" rx="0.537373" ry="0.537388" fill="white"/>
<ellipse cx="656.471" cy="273.343" rx="0.537373" ry="0.537388" fill="white"/>
<ellipse cx="737.079" cy="273.343" rx="0.537403" ry="0.537388" fill="white"/>
<ellipse cx="43.8504" cy="327.082" rx="0.537386" ry="0.537388" fill="white"/>
<circle cx="124.458" cy="327.082" r="0.537388" fill="white"/>
<circle cx="205.066" cy="327.082" r="0.537388" fill="white"/>
<circle cx="285.674" cy="327.082" r="0.537388" fill="white"/>
<circle cx="366.282" cy="327.082" r="0.537388" fill="white"/>
<ellipse cx="446.89" cy="327.082" rx="0.537329" ry="0.537388" fill="white"/>
<circle cx="527.498" cy="327.082" r="0.537388" fill="white"/>
<ellipse cx="608.106" cy="327.082" rx="0.537373" ry="0.537388" fill="white"/>
<ellipse cx="688.714" cy="327.082" rx="0.537403" ry="0.537388" fill="white"/>
<ellipse cx="33.1027" cy="380.821" rx="0.537387" ry="0.537373" fill="white"/>
<ellipse cx="113.711" cy="380.821" rx="0.537388" ry="0.537373" fill="white"/>
<ellipse cx="194.319" cy="380.821" rx="0.537388" ry="0.537373" fill="white"/>
<ellipse cx="274.927" cy="380.821" rx="0.537366" ry="0.537373" fill="white"/>
<ellipse cx="355.534" cy="380.821" rx="0.537388" ry="0.537373" fill="white"/>
<ellipse cx="436.142" cy="380.821" rx="0.537432" ry="0.537373" fill="white"/>
<ellipse cx="516.75" cy="380.821" rx="0.537388" ry="0.537373" fill="white"/>
<circle cx="597.358" cy="380.821" r="0.537373" fill="white"/>
<circle cx="677.966" cy="380.821" r="0.537373" fill="white"/>
<ellipse cx="758.574" cy="380.821" rx="0.537403" ry="0.537373" fill="white"/>
<ellipse cx="65.3459" cy="434.559" rx="0.537387" ry="0.537403" fill="white"/>
<ellipse cx="145.954" cy="434.559" rx="0.537388" ry="0.537403" fill="white"/>
<ellipse cx="226.562" cy="434.559" rx="0.537388" ry="0.537403" fill="white"/>
<ellipse cx="307.17" cy="434.559" rx="0.537388" ry="0.537403" fill="white"/>
<ellipse cx="387.778" cy="434.559" rx="0.537388" ry="0.537403" fill="white"/>
<ellipse cx="468.386" cy="434.559" rx="0.537388" ry="0.537403" fill="white"/>
<ellipse cx="548.993" cy="434.559" rx="0.537314" ry="0.537403" fill="white"/>
<ellipse cx="629.601" cy="434.559" rx="0.537373" ry="0.537403" fill="white"/>
<circle cx="710.209" cy="434.559" r="0.537403" fill="white"/>
<ellipse cx="790.817" cy="434.559" rx="0.537373" ry="0.537403" fill="white"/>
<ellipse cx="22.355" cy="488.298" rx="0.537386" ry="0.537373" fill="white"/>
<ellipse cx="102.963" cy="488.298" rx="0.537388" ry="0.537373" fill="white"/>
<ellipse cx="183.571" cy="488.298" rx="0.537388" ry="0.537373" fill="white"/>
<ellipse cx="264.179" cy="488.298" rx="0.537381" ry="0.537373" fill="white"/>
<ellipse cx="344.787" cy="488.298" rx="0.537388" ry="0.537373" fill="white"/>
<ellipse cx="425.395" cy="488.298" rx="0.537432" ry="0.537373" fill="white"/>
<ellipse cx="506.003" cy="488.298" rx="0.537388" ry="0.537373" fill="white"/>
<ellipse cx="586.611" cy="488.298" rx="0.537403" ry="0.537373" fill="white"/>
<circle cx="667.219" cy="488.298" r="0.537373" fill="white"/>
<circle cx="747.826" cy="488.298" r="0.537373" fill="white"/>
<ellipse cx="38.4766" cy="542.036" rx="0.537386" ry="0.537403" fill="white"/>
<ellipse cx="119.085" cy="542.036" rx="0.537388" ry="0.537403" fill="white"/>
<ellipse cx="199.693" cy="542.036" rx="0.537388" ry="0.537403" fill="white"/>
<ellipse cx="280.3" cy="542.036" rx="0.537366" ry="0.537403" fill="white"/>
<ellipse cx="360.908" cy="542.036" rx="0.537373" ry="0.537403" fill="white"/>
<circle cx="441.516" cy="542.036" r="0.537403" fill="white"/>
<ellipse cx="522.124" cy="542.036" rx="0.537432" ry="0.537403" fill="white"/>
<ellipse cx="602.732" cy="542.036" rx="0.537373" ry="0.537403" fill="white"/>
<circle cx="683.34" cy="542.036" r="0.537403" fill="white"/>
<ellipse cx="763.948" cy="542.036" rx="0.537373" ry="0.537403" fill="white"/>
<ellipse cx="76.0936" cy="601.149" rx="0.537386" ry="0.537373" fill="white"/>
<circle cx="156.702" cy="601.149" r="0.537373" fill="white"/>
<ellipse cx="237.309" cy="601.149" rx="0.537395" ry="0.537373" fill="white"/>
<ellipse cx="317.917" cy="601.149" rx="0.537388" ry="0.537373" fill="white"/>
<circle cx="398.525" cy="601.149" r="0.537373" fill="white"/>
<ellipse cx="479.133" cy="601.149" rx="0.537388" ry="0.537373" fill="white"/>
<ellipse cx="559.741" cy="601.149" rx="0.537432" ry="0.537373" fill="white"/>
<ellipse cx="640.349" cy="601.149" rx="0.537403" ry="0.537373" fill="white"/>
<circle cx="720.957" cy="601.149" r="0.537373" fill="white"/>
<circle cx="801.565" cy="601.149" r="0.537373" fill="white"/>
<ellipse cx="43.8504" cy="660.262" rx="0.537386" ry="0.537403" fill="white"/>
<ellipse cx="124.458" cy="660.262" rx="0.537388" ry="0.537403" fill="white"/>
<ellipse cx="205.066" cy="660.262" rx="0.537388" ry="0.537403" fill="white"/>
<ellipse cx="285.674" cy="660.262" rx="0.537388" ry="0.537403" fill="white"/>
<ellipse cx="366.282" cy="660.262" rx="0.537388" ry="0.537403" fill="white"/>
<ellipse cx="446.89" cy="660.262" rx="0.537329" ry="0.537403" fill="white"/>
<ellipse cx="527.498" cy="660.262" rx="0.537388" ry="0.537403" fill="white"/>
<ellipse cx="608.106" cy="660.262" rx="0.537373" ry="0.537403" fill="white"/>
<circle cx="688.714" cy="660.262" r="0.537403" fill="white"/>
<ellipse cx="769.322" cy="660.262" rx="0.537373" ry="0.537403" fill="white"/>
<ellipse cx="86.8413" cy="718.299" rx="0.537392" ry="0.537344" fill="white"/>
<ellipse cx="167.449" cy="718.299" rx="0.537373" ry="0.537344" fill="white"/>
<ellipse cx="248.057" cy="718.299" rx="0.537417" ry="0.537344" fill="white"/>
<ellipse cx="328.665" cy="718.299" rx="0.537388" ry="0.537344" fill="white"/>
<ellipse cx="409.273" cy="718.299" rx="0.537373" ry="0.537344" fill="white"/>
<ellipse cx="489.881" cy="718.299" rx="0.537403" ry="0.537344" fill="white"/>
<ellipse cx="570.489" cy="718.299" rx="0.537432" ry="0.537344" fill="white"/>
<ellipse cx="651.097" cy="718.299" rx="0.537373" ry="0.537344" fill="white"/>
<ellipse cx="731.705" cy="718.299" rx="0.537403" ry="0.537344" fill="white"/>
<ellipse cx="54.5982" cy="777.412" rx="0.537386" ry="0.537403" fill="white"/>
<ellipse cx="135.206" cy="777.412" rx="0.537373" ry="0.537403" fill="white"/>
<ellipse cx="215.814" cy="777.412" rx="0.537388" ry="0.537403" fill="white"/>
<ellipse cx="296.422" cy="777.412" rx="0.537417" ry="0.537403" fill="white"/>
<ellipse cx="377.03" cy="777.412" rx="0.537388" ry="0.537403" fill="white"/>
<ellipse cx="457.638" cy="777.412" rx="0.537388" ry="0.537403" fill="white"/>
<circle cx="538.246" cy="777.412" r="0.537403" fill="white"/>
<ellipse cx="618.854" cy="777.412" rx="0.537373" ry="0.537403" fill="white"/>
<ellipse cx="699.462" cy="777.412" rx="0.537373" ry="0.537403" fill="white"/>
<circle cx="780.07" cy="777.412" r="0.537403" fill="white"/>
<ellipse cx="22.355" cy="836.524" rx="0.537386" ry="0.537373" fill="white"/>
<ellipse cx="102.963" cy="836.524" rx="0.537388" ry="0.537373" fill="white"/>
<ellipse cx="183.571" cy="836.524" rx="0.537388" ry="0.537373" fill="white"/>
<ellipse cx="264.179" cy="836.524" rx="0.537381" ry="0.537373" fill="white"/>
<ellipse cx="344.787" cy="836.524" rx="0.537388" ry="0.537373" fill="white"/>
<ellipse cx="425.395" cy="836.524" rx="0.537432" ry="0.537373" fill="white"/>
<ellipse cx="506.003" cy="836.524" rx="0.537388" ry="0.537373" fill="white"/>
<ellipse cx="586.611" cy="836.524" rx="0.537403" ry="0.537373" fill="white"/>
<circle cx="667.219" cy="836.524" r="0.537373" fill="white"/>
<circle cx="747.826" cy="836.524" r="0.537373" fill="white"/>
<ellipse cx="54.5982" cy="895.637" rx="0.537386" ry="0.537314" fill="white"/>
<ellipse cx="135.206" cy="895.637" rx="0.537373" ry="0.537314" fill="white"/>
<ellipse cx="215.814" cy="895.637" rx="0.537388" ry="0.537314" fill="white"/>
<ellipse cx="296.422" cy="895.637" rx="0.537417" ry="0.537314" fill="white"/>
<ellipse cx="377.03" cy="895.637" rx="0.537388" ry="0.537314" fill="white"/>
<ellipse cx="457.638" cy="895.637" rx="0.537388" ry="0.537314" fill="white"/>
<ellipse cx="538.246" cy="895.637" rx="0.537403" ry="0.537314" fill="white"/>
<ellipse cx="618.854" cy="895.637" rx="0.537373" ry="0.537314" fill="white"/>
<ellipse cx="699.462" cy="895.637" rx="0.537373" ry="0.537314" fill="white"/>
<ellipse cx="33.1027" cy="949.376" rx="0.537387" ry="0.537373" fill="white"/>
<ellipse cx="113.711" cy="949.376" rx="0.537388" ry="0.537373" fill="white"/>
<ellipse cx="194.319" cy="949.376" rx="0.537388" ry="0.537373" fill="white"/>
<ellipse cx="274.927" cy="949.376" rx="0.537366" ry="0.537373" fill="white"/>
<ellipse cx="355.534" cy="949.376" rx="0.537388" ry="0.537373" fill="white"/>
<ellipse cx="436.142" cy="949.376" rx="0.537432" ry="0.537373" fill="white"/>
<ellipse cx="516.75" cy="949.376" rx="0.537388" ry="0.537373" fill="white"/>
<circle cx="597.358" cy="949.376" r="0.537373" fill="white"/>
<circle cx="677.966" cy="949.376" r="0.537373" fill="white"/>
<circle cx="677.966" cy="949.376" r="0.537373" fill="white"/>
<ellipse cx="780.07" cy="895.637" rx="0.537403" ry="0.537314" fill="white"/>
<ellipse cx="234.085" cy="4.11317" rx="1.07475" ry="1.07478" fill="white"/>
<ellipse cx="878.949" cy="4.11317" rx="1.07486" ry="1.07478" fill="white"/>
<ellipse cx="40.6262" cy="106.217" rx="1.07477" ry="1.07478" fill="white"/>
<ellipse cx="201.842" cy="111.59" rx="1.07478" ry="1.07477" fill="white"/>
<circle cx="363.058" cy="106.217" r="1.07478" fill="white"/>
<ellipse cx="524.274" cy="100.843" rx="1.07473" ry="1.07477" fill="white"/>
<circle cx="685.49" cy="106.217" r="1.07478" fill="white"/>
<ellipse cx="846.706" cy="111.59" rx="1.07466" ry="1.07477" fill="white"/>
<ellipse cx="105.112" cy="213.694" rx="1.07476" ry="1.07478" fill="white"/>
<ellipse cx="266.328" cy="219.068" rx="1.07475" ry="1.07478" fill="white"/>
<ellipse cx="427.544" cy="213.694" rx="1.07473" ry="1.07478" fill="white"/>
<circle cx="588.76" cy="208.32" r="1.07478" fill="white"/>
<ellipse cx="749.976" cy="213.694" rx="1.07475" ry="1.07478" fill="white"/>
<circle cx="911.192" cy="219.068" r="1.07478" fill="white"/>
<ellipse cx="78.2432" cy="322.246" rx="1.07477" ry="1.07478" fill="white"/>
<circle cx="239.459" cy="327.619" r="1.07478" fill="white"/>
<circle cx="400.675" cy="322.246" r="1.07478" fill="white"/>
<ellipse cx="561.891" cy="316.872" rx="1.07481" ry="1.07476" fill="white"/>
<ellipse cx="723.107" cy="322.246" rx="1.07475" ry="1.07478" fill="white"/>
<circle cx="884.323" cy="326.545" r="1.07478" fill="white"/>
<ellipse cx="51.3738" cy="429.723" rx="1.07477" ry="1.07478" fill="white"/>
<ellipse cx="212.59" cy="435.097" rx="1.07477" ry="1.07478" fill="white"/>
<ellipse cx="373.806" cy="429.723" rx="1.07476" ry="1.07478" fill="white"/>
<ellipse cx="535.022" cy="424.349" rx="1.07483" ry="1.07478" fill="white"/>
<circle cx="696.237" cy="429.723" r="1.07478" fill="white"/>
<ellipse cx="857.453" cy="434.022" rx="1.07466" ry="1.07478" fill="white"/>
<ellipse cx="137.356" cy="537.2" rx="1.07478" ry="1.07478" fill="white"/>
<ellipse cx="298.572" cy="542.574" rx="1.07478" ry="1.07481" fill="white"/>
<ellipse cx="459.787" cy="537.2" rx="1.07476" ry="1.07478" fill="white"/>
<circle cx="621.003" cy="531.826" r="1.07478" fill="white"/>
<circle cx="782.219" cy="537.2" r="1.07478" fill="white"/>
<ellipse cx="943.435" cy="541.499" rx="1.07466" ry="1.07478" fill="white"/>
<ellipse cx="36.8644" cy="644.677" rx="1.07477" ry="1.07478" fill="white"/>
<ellipse cx="198.08" cy="650.051" rx="1.07477" ry="1.07478" fill="white"/>
<circle cx="359.296" cy="644.677" r="1.07478" fill="white"/>
<circle cx="520.512" cy="639.303" r="1.07478" fill="white"/>
<circle cx="681.728" cy="644.677" r="1.07478" fill="white"/>
<ellipse cx="842.944" cy="648.977" rx="1.07469" ry="1.07481" fill="white"/>
<ellipse cx="49.2244" cy="737.108" rx="1.07477" ry="1.07478" fill="white"/>
<circle cx="210.44" cy="742.482" r="1.07478" fill="white"/>
<circle cx="371.656" cy="737.108" r="1.07478" fill="white"/>
<ellipse cx="532.872" cy="731.734" rx="1.07475" ry="1.07478" fill="white"/>
<circle cx="694.088" cy="737.108" r="1.07478" fill="white"/>
<circle cx="855.304" cy="742.482" r="1.07478" fill="white"/>
<ellipse cx="88.4536" cy="852.109" rx="1.07477" ry="1.07478" fill="white"/>
<circle cx="249.669" cy="857.483" r="1.07475" fill="white"/>
<circle cx="410.885" cy="852.109" r="1.07478" fill="white"/>
<ellipse cx="572.101" cy="846.735" rx="1.07472" ry="1.07478" fill="white"/>
<ellipse cx="733.317" cy="852.109" rx="1.07475" ry="1.07478" fill="white"/>
<ellipse cx="894.533" cy="857.483" rx="1.07481" ry="1.07475" fill="white"/>
<ellipse cx="774.695" cy="947.763" rx="1.07478" ry="1.07481" fill="white"/>
<ellipse cx="158.851" cy="63.2256" rx="1.07476" ry="1.07477" fill="white"/>
<ellipse cx="320.067" cy="57.8518" rx="1.07476" ry="1.07477" fill="white"/>
<ellipse cx="481.283" cy="52.4779" rx="1.07476" ry="1.07478" fill="white"/>
<ellipse cx="642.499" cy="57.8518" rx="1.07478" ry="1.07477" fill="white"/>
<ellipse cx="803.715" cy="63.2256" rx="1.07481" ry="1.07477" fill="white"/>
<ellipse cx="126.608" cy="170.703" rx="1.07477" ry="1.07479" fill="white"/>
<circle cx="287.824" cy="165.329" r="1.07478" fill="white"/>
<ellipse cx="449.04" cy="159.955" rx="1.07482" ry="1.07478" fill="white"/>
<ellipse cx="610.255" cy="165.329" rx="1.07481" ry="1.07478" fill="white"/>
<ellipse cx="771.471" cy="170.703" rx="1.07475" ry="1.07479" fill="white"/>
<ellipse cx="29.8784" cy="273.881" rx="1.07477" ry="1.07478" fill="white"/>
<ellipse cx="191.094" cy="279.255" rx="1.07477" ry="1.07476" fill="white"/>
<circle cx="352.31" cy="273.881" r="1.07478" fill="white"/>
<ellipse cx="513.526" cy="268.507" rx="1.07479" ry="1.07478" fill="white"/>
<ellipse cx="674.742" cy="273.881" rx="1.07475" ry="1.07478" fill="white"/>
<circle cx="835.958" cy="278.18" r="1.07478" fill="white"/>
<ellipse cx="3.00904" cy="381.358" rx="1.07477" ry="1.07475" fill="white"/>
<ellipse cx="164.225" cy="386.732" rx="1.07477" ry="1.07478" fill="white"/>
<ellipse cx="325.441" cy="381.358" rx="1.07476" ry="1.07475" fill="white"/>
<ellipse cx="486.657" cy="375.984" rx="1.07482" ry="1.07478" fill="white"/>
<ellipse cx="647.873" cy="381.358" rx="1.07478" ry="1.07475" fill="white"/>
<circle cx="809.088" cy="386.732" r="1.07478" fill="white"/>
<ellipse cx="137.356" cy="494.209" rx="1.07478" ry="1.07478" fill="white"/>
<circle cx="298.572" cy="488.835" r="1.07478" fill="white"/>
<ellipse cx="459.787" cy="483.461" rx="1.07476" ry="1.07478" fill="white"/>
<circle cx="621.003" cy="488.835" r="1.07478" fill="white"/>
<circle cx="782.219" cy="494.209" r="1.07478" fill="white"/>
<ellipse cx="62.1216" cy="596.313" rx="1.07477" ry="1.07475" fill="white"/>
<circle cx="223.337" cy="601.686" r="1.07478" fill="white"/>
<ellipse cx="384.553" cy="596.313" rx="1.07478" ry="1.07475" fill="white"/>
<ellipse cx="545.769" cy="590.939" rx="1.07483" ry="1.07478" fill="white"/>
<ellipse cx="706.985" cy="596.313" rx="1.07481" ry="1.07475" fill="white"/>
<circle cx="868.201" cy="600.612" r="1.07478" fill="white"/>
<ellipse cx="122.846" cy="708.089" rx="1.07477" ry="1.07478" fill="white"/>
<ellipse cx="284.062" cy="702.715" rx="1.07479" ry="1.07478" fill="white"/>
<ellipse cx="445.278" cy="697.341" rx="1.07482" ry="1.07478" fill="white"/>
<circle cx="606.494" cy="702.715" r="1.07478" fill="white"/>
<circle cx="767.71" cy="708.089" r="1.07478" fill="white"/>
<ellipse cx="135.206" cy="801.594" rx="1.07476" ry="1.07478" fill="white"/>
<ellipse cx="296.422" cy="796.221" rx="1.07476" ry="1.07475" fill="white"/>
<ellipse cx="457.638" cy="790.847" rx="1.07482" ry="1.07481" fill="white"/>
<ellipse cx="618.854" cy="796.221" rx="1.07478" ry="1.07475" fill="white"/>
<circle cx="780.07" cy="801.594" r="1.07478" fill="white"/>
<ellipse cx="13.2194" cy="911.221" rx="1.07477" ry="1.07475" fill="white"/>
<ellipse cx="174.435" cy="916.595" rx="1.07477" ry="1.07475" fill="white"/>
<ellipse cx="335.651" cy="911.221" rx="1.07478" ry="1.07475" fill="white"/>
<ellipse cx="496.867" cy="905.847" rx="1.07473" ry="1.07475" fill="white"/>
<ellipse cx="658.083" cy="911.221" rx="1.07478" ry="1.07475" fill="white"/>
<ellipse cx="819.299" cy="916.595" rx="1.07469" ry="1.07475" fill="white"/>
<circle cx="823.06" cy="45.4919" r="0.537388" fill="white"/>
<ellipse cx="903.668" cy="45.4919" rx="0.537399" ry="0.537388" fill="white"/>
<circle cx="984.276" cy="45.4919" r="0.537388" fill="white"/>
<ellipse cx="1064.88" cy="45.4919" rx="0.537373" ry="0.537388" fill="white"/>
<ellipse cx="1145.49" cy="45.4919" rx="0.537403" ry="0.537388" fill="white"/>
<circle cx="1226.1" cy="45.4919" r="0.537388" fill="white"/>
<ellipse cx="1306.71" cy="45.4919" rx="0.537403" ry="0.537388" fill="white"/>
<ellipse cx="1387.32" cy="45.4919" rx="0.537373" ry="0.537388" fill="white"/>
<ellipse cx="1467.92" cy="45.4919" rx="0.537403" ry="0.537388" fill="white"/>
<ellipse cx="1548.53" cy="45.4919" rx="0.537403" ry="0.537388" fill="white"/>
<ellipse cx="806.939" cy="99.2305" rx="0.537388" ry="0.537388" fill="white"/>
<circle cx="887.547" cy="99.2305" r="0.537388" fill="white"/>
<circle cx="968.155" cy="99.2305" r="0.537388" fill="white"/>
<ellipse cx="1048.76" cy="99.2305" rx="0.537403" ry="0.537388" fill="white"/>
<circle cx="1129.37" cy="99.2305" r="0.537388" fill="white"/>
<circle cx="1209.98" cy="99.2305" r="0.537388" fill="white"/>
<ellipse cx="1290.59" cy="99.2305" rx="0.537373" ry="0.537388" fill="white"/>
<ellipse cx="1371.19" cy="99.2305" rx="0.537403" ry="0.537388" fill="white"/>
<ellipse cx="1451.8" cy="99.2305" rx="0.537403" ry="0.537388" fill="white"/>
<ellipse cx="1532.41" cy="99.2305" rx="0.537373" ry="0.537388" fill="white"/>
<circle cx="823.06" cy="152.969" r="0.537388" fill="white"/>
<ellipse cx="903.668" cy="152.969" rx="0.537399" ry="0.537388" fill="white"/>
<circle cx="984.276" cy="152.969" r="0.537388" fill="white"/>
<ellipse cx="1064.88" cy="152.969" rx="0.537373" ry="0.537388" fill="white"/>
<ellipse cx="1145.49" cy="152.969" rx="0.537403" ry="0.537388" fill="white"/>
<circle cx="1226.1" cy="152.969" r="0.537388" fill="white"/>
<ellipse cx="1306.71" cy="152.969" rx="0.537403" ry="0.537388" fill="white"/>
<ellipse cx="1387.32" cy="152.969" rx="0.537373" ry="0.537388" fill="white"/>
<ellipse cx="1467.92" cy="152.969" rx="0.537403" ry="0.537388" fill="white"/>
<ellipse cx="1548.53" cy="152.969" rx="0.537403" ry="0.537388" fill="white"/>
<ellipse cx="796.191" cy="207.782" rx="0.537386" ry="0.537388" fill="white"/>
<circle cx="876.799" cy="207.782" r="0.537388" fill="white"/>
<ellipse cx="957.407" cy="207.782" rx="0.537381" ry="0.537388" fill="white"/>
<ellipse cx="1038.01" cy="207.782" rx="0.53741" ry="0.537388" fill="white"/>
<circle cx="1118.62" cy="207.782" r="0.537388" fill="white"/>
<circle cx="1199.23" cy="207.782" r="0.537388" fill="white"/>
<ellipse cx="1279.84" cy="207.782" rx="0.537432" ry="0.537388" fill="white"/>
<ellipse cx="1360.45" cy="207.782" rx="0.537373" ry="0.537388" fill="white"/>
<ellipse cx="1441.05" cy="207.782" rx="0.537403" ry="0.537388" fill="white"/>
<ellipse cx="1521.66" cy="207.782" rx="0.537373" ry="0.537388" fill="white"/>
<ellipse cx="828.434" cy="261.521" rx="0.537386" ry="0.537388" fill="white"/>
<circle cx="909.042" cy="261.521" r="0.537388" fill="white"/>
<ellipse cx="989.65" cy="261.521" rx="0.53741" ry="0.537388" fill="white"/>
<circle cx="1070.26" cy="261.521" r="0.537388" fill="white"/>
<circle cx="1150.87" cy="261.521" r="0.537388" fill="white"/>
<ellipse cx="1231.47" cy="261.521" rx="0.537432" ry="0.537388" fill="white"/>
<ellipse cx="1312.08" cy="261.521" rx="0.537314" ry="0.537388" fill="white"/>
<ellipse cx="1392.69" cy="261.521" rx="0.537403" ry="0.537388" fill="white"/>
<ellipse cx="1473.3" cy="261.521" rx="0.537373" ry="0.537388" fill="white"/>
<ellipse cx="817.687" cy="315.26" rx="0.537386" ry="0.537388" fill="white"/>
<ellipse cx="898.294" cy="315.26" rx="0.537373" ry="0.537388" fill="white"/>
<circle cx="978.902" cy="315.26" r="0.537388" fill="white"/>
<ellipse cx="1059.51" cy="315.26" rx="0.537417" ry="0.537388" fill="white"/>
<circle cx="1140.12" cy="315.26" r="0.537388" fill="white"/>
<ellipse cx="1220.73" cy="315.26" rx="0.537329" ry="0.537388" fill="white"/>
<ellipse cx="1301.33" cy="315.26" rx="0.537432" ry="0.537388" fill="white"/>
<ellipse cx="1381.94" cy="315.26" rx="0.537403" ry="0.537388" fill="white"/>
<ellipse cx="1462.55" cy="315.26" rx="0.537403" ry="0.537388" fill="white"/>
<ellipse cx="1543.16" cy="315.26" rx="0.537373" ry="0.537388" fill="white"/>
<ellipse cx="849.93" cy="368.998" rx="0.537392" ry="0.537373" fill="white"/>
<ellipse cx="930.538" cy="368.998" rx="0.537388" ry="0.537373" fill="white"/>
<ellipse cx="1011.15" cy="368.998" rx="0.53741" ry="0.537373" fill="white"/>
<ellipse cx="1091.75" cy="368.998" rx="0.537388" ry="0.537373" fill="white"/>
<circle cx="1172.36" cy="368.998" r="0.537373" fill="white"/>
<ellipse cx="1252.97" cy="368.998" rx="0.537432" ry="0.537373" fill="white"/>
<ellipse cx="1333.58" cy="368.998" rx="0.537403" ry="0.537373" fill="white"/>
<ellipse cx="1414.19" cy="368.998" rx="0.537403" ry="0.537373" fill="white"/>
<circle cx="1494.79" cy="368.998" r="0.537373" fill="white"/>
<ellipse cx="1575.4" cy="368.998" rx="0.53758" ry="0.537373" fill="white"/>
<ellipse cx="806.939" cy="422.737" rx="0.537388" ry="0.537373" fill="white"/>
<ellipse cx="887.547" cy="422.737" rx="0.537388" ry="0.537373" fill="white"/>
<ellipse cx="968.155" cy="422.737" rx="0.537388" ry="0.537373" fill="white"/>
<ellipse cx="1048.76" cy="422.737" rx="0.537403" ry="0.537373" fill="white"/>
<ellipse cx="1129.37" cy="422.737" rx="0.537388" ry="0.537373" fill="white"/>
<ellipse cx="1209.98" cy="422.737" rx="0.537388" ry="0.537373" fill="white"/>
<circle cx="1290.59" cy="422.737" r="0.537373" fill="white"/>
<ellipse cx="1371.19" cy="422.737" rx="0.537403" ry="0.537373" fill="white"/>
<ellipse cx="1451.8" cy="422.737" rx="0.537403" ry="0.537373" fill="white"/>
<circle cx="1532.41" cy="422.737" r="0.537373" fill="white"/>
<ellipse cx="823.06" cy="476.475" rx="0.537388" ry="0.537373" fill="white"/>
<ellipse cx="903.668" cy="476.475" rx="0.537399" ry="0.537373" fill="white"/>
<ellipse cx="984.276" cy="476.475" rx="0.537388" ry="0.537373" fill="white"/>
<circle cx="1064.88" cy="476.475" r="0.537373" fill="white"/>
<ellipse cx="1145.49" cy="476.475" rx="0.537403" ry="0.537373" fill="white"/>
<ellipse cx="1226.1" cy="476.475" rx="0.537388" ry="0.537373" fill="white"/>
<ellipse cx="1306.71" cy="476.475" rx="0.537403" ry="0.537373" fill="white"/>
<circle cx="1387.32" cy="476.475" r="0.537373" fill="white"/>
<ellipse cx="1467.92" cy="476.475" rx="0.537403" ry="0.537373" fill="white"/>
<ellipse cx="1548.53" cy="476.475" rx="0.537403" ry="0.537373" fill="white"/>
<ellipse cx="860.678" cy="535.588" rx="0.537384" ry="0.537373" fill="white"/>
<ellipse cx="941.285" cy="535.588" rx="0.537388" ry="0.537373" fill="white"/>
<ellipse cx="1021.89" cy="535.588" rx="0.537381" ry="0.537373" fill="white"/>
<ellipse cx="1102.5" cy="535.588" rx="0.537388" ry="0.537373" fill="white"/>
<ellipse cx="1183.11" cy="535.588" rx="0.537432" ry="0.537373" fill="white"/>
<ellipse cx="1263.72" cy="535.588" rx="0.537329" ry="0.537373" fill="white"/>
<ellipse cx="1344.33" cy="535.588" rx="0.537403" ry="0.537373" fill="white"/>
<circle cx="1424.93" cy="535.588" r="0.537373" fill="white"/>
<circle cx="1505.54" cy="535.588" r="0.537373" fill="white"/>
<ellipse cx="1586.15" cy="535.588" rx="0.537403" ry="0.537373" fill="white"/>
<ellipse cx="828.434" cy="594.7" rx="0.537386" ry="0.537403" fill="white"/>
<ellipse cx="909.042" cy="594.7" rx="0.537388" ry="0.537403" fill="white"/>
<ellipse cx="989.65" cy="594.7" rx="0.53741" ry="0.537403" fill="white"/>
<ellipse cx="1070.26" cy="594.7" rx="0.537388" ry="0.537403" fill="white"/>
<ellipse cx="1150.87" cy="594.7" rx="0.537388" ry="0.537403" fill="white"/>
<ellipse cx="1231.47" cy="594.7" rx="0.537432" ry="0.537403" fill="white"/>
<ellipse cx="1312.08" cy="594.7" rx="0.537314" ry="0.537403" fill="white"/>
<circle cx="1392.69" cy="594.7" r="0.537403" fill="white"/>
<ellipse cx="1473.3" cy="594.7" rx="0.537373" ry="0.537403" fill="white"/>
<ellipse cx="1553.91" cy="594.7" rx="0.537373" ry="0.537403" fill="white"/>
<ellipse cx="871.425" cy="652.738" rx="0.537384" ry="0.537403" fill="white"/>
<ellipse cx="952.033" cy="652.738" rx="0.537381" ry="0.537403" fill="white"/>
<ellipse cx="1032.64" cy="652.738" rx="0.53741" ry="0.537403" fill="white"/>
<ellipse cx="1113.25" cy="652.738" rx="0.537373" ry="0.537403" fill="white"/>
<ellipse cx="1193.86" cy="652.738" rx="0.537373" ry="0.537403" fill="white"/>
<ellipse cx="1274.46" cy="652.738" rx="0.537388" ry="0.537403" fill="white"/>
<circle cx="1355.07" cy="652.738" r="0.537403" fill="white"/>
<ellipse cx="1435.68" cy="652.738" rx="0.537373" ry="0.537403" fill="white"/>
<circle cx="1516.29" cy="652.738" r="0.537403" fill="white"/>
<ellipse cx="839.182" cy="711.851" rx="0.537386" ry="0.537403" fill="white"/>
<ellipse cx="919.79" cy="711.851" rx="0.537388" ry="0.537403" fill="white"/>
<ellipse cx="1000.4" cy="711.851" rx="0.537395" ry="0.537403" fill="white"/>
<ellipse cx="1081.01" cy="711.851" rx="0.537388" ry="0.537403" fill="white"/>
<ellipse cx="1161.61" cy="711.851" rx="0.537373" ry="0.537403" fill="white"/>
<ellipse cx="1242.22" cy="711.851" rx="0.537373" ry="0.537403" fill="white"/>
<circle cx="1322.83" cy="711.851" r="0.537403" fill="white"/>
<circle cx="1403.44" cy="711.851" r="0.537403" fill="white"/>
<ellipse cx="1484.05" cy="711.851" rx="0.537373" ry="0.537403" fill="white"/>
<circle cx="1564.65" cy="711.851" r="0.537403" fill="white"/>
<ellipse cx="806.939" cy="770.963" rx="0.537388" ry="0.537373" fill="white"/>
<ellipse cx="887.547" cy="770.963" rx="0.537388" ry="0.537373" fill="white"/>
<ellipse cx="968.155" cy="770.963" rx="0.537388" ry="0.537373" fill="white"/>
<ellipse cx="1048.76" cy="770.963" rx="0.537403" ry="0.537373" fill="white"/>
<ellipse cx="1129.37" cy="770.963" rx="0.537388" ry="0.537373" fill="white"/>
<ellipse cx="1209.98" cy="770.963" rx="0.537388" ry="0.537373" fill="white"/>
<circle cx="1290.59" cy="770.963" r="0.537373" fill="white"/>
<ellipse cx="1371.19" cy="770.963" rx="0.537403" ry="0.537373" fill="white"/>
<ellipse cx="1451.8" cy="770.963" rx="0.537403" ry="0.537373" fill="white"/>
<circle cx="1532.41" cy="770.963" r="0.537373" fill="white"/>
<ellipse cx="839.182" cy="830.076" rx="0.537386" ry="0.537373" fill="white"/>
<ellipse cx="919.79" cy="830.076" rx="0.537388" ry="0.537373" fill="white"/>
<ellipse cx="1000.4" cy="830.076" rx="0.537395" ry="0.537373" fill="white"/>
<ellipse cx="1081.01" cy="830.076" rx="0.537388" ry="0.537373" fill="white"/>
<circle cx="1161.61" cy="830.076" r="0.537373" fill="white"/>
<circle cx="1242.22" cy="830.076" r="0.537373" fill="white"/>
<ellipse cx="1322.83" cy="830.076" rx="0.537403" ry="0.537373" fill="white"/>
<ellipse cx="1403.44" cy="830.076" rx="0.537403" ry="0.537373" fill="white"/>
<circle cx="1484.05" cy="830.076" r="0.537373" fill="white"/>
<ellipse cx="817.687" cy="883.814" rx="0.537386" ry="0.537373" fill="white"/>
<circle cx="898.294" cy="883.814" r="0.537373" fill="white"/>
<ellipse cx="978.902" cy="883.814" rx="0.537388" ry="0.537373" fill="white"/>
<ellipse cx="1059.51" cy="883.814" rx="0.537417" ry="0.537373" fill="white"/>
<ellipse cx="1140.12" cy="883.814" rx="0.537388" ry="0.537373" fill="white"/>
<ellipse cx="1220.73" cy="883.814" rx="0.537329" ry="0.537373" fill="white"/>
<ellipse cx="1301.33" cy="883.814" rx="0.537432" ry="0.537373" fill="white"/>
<ellipse cx="1381.94" cy="883.814" rx="0.537403" ry="0.537373" fill="white"/>
<ellipse cx="1462.55" cy="883.814" rx="0.537403" ry="0.537373" fill="white"/>
<ellipse cx="1462.55" cy="883.814" rx="0.537403" ry="0.537373" fill="white"/>
<ellipse cx="860.678" cy="937.553" rx="0.537384" ry="0.537373" fill="white"/>
<ellipse cx="941.285" cy="937.553" rx="0.537388" ry="0.537373" fill="white"/>
<ellipse cx="1021.89" cy="937.553" rx="0.537381" ry="0.537373" fill="white"/>
<ellipse cx="1102.5" cy="937.553" rx="0.537388" ry="0.537373" fill="white"/>
<ellipse cx="1183.11" cy="937.553" rx="0.537432" ry="0.537373" fill="white"/>
<ellipse cx="1263.72" cy="937.553" rx="0.537329" ry="0.537373" fill="white"/>
<ellipse cx="1344.33" cy="937.553" rx="0.537403" ry="0.537373" fill="white"/>
<circle cx="1424.93" cy="937.553" r="0.537373" fill="white"/>
<circle cx="1505.54" cy="937.553" r="0.537373" fill="white"/>
<ellipse cx="1564.65" cy="830.076" rx="0.537403" ry="0.537373" fill="white"/>
<ellipse cx="849.93" cy="50.8658" rx="0.537392" ry="0.537388" fill="white"/>
<circle cx="930.538" cy="50.8658" r="0.537388" fill="white"/>
<ellipse cx="1011.15" cy="50.8658" rx="0.53741" ry="0.537388" fill="white"/>
<circle cx="1091.75" cy="50.8658" r="0.537388" fill="white"/>
<ellipse cx="1172.36" cy="50.8658" rx="0.537373" ry="0.537388" fill="white"/>
<ellipse cx="1252.97" cy="50.8658" rx="0.537432" ry="0.537388" fill="white"/>
<ellipse cx="1333.58" cy="50.8658" rx="0.537403" ry="0.537388" fill="white"/>
<ellipse cx="1414.19" cy="50.8658" rx="0.537403" ry="0.537388" fill="white"/>
<ellipse cx="1494.79" cy="50.8658" rx="0.537373" ry="0.537388" fill="white"/>
<ellipse cx="1575.4" cy="50.8658" rx="0.53758" ry="0.537388" fill="white"/>
<circle cx="833.808" cy="104.604" r="0.537388" fill="white"/>
<circle cx="914.416" cy="104.604" r="0.537388" fill="white"/>
<ellipse cx="995.024" cy="104.604" rx="0.537366" ry="0.537388" fill="white"/>
<ellipse cx="1075.63" cy="104.604" rx="0.537373" ry="0.537388" fill="white"/>
<circle cx="1156.24" cy="104.604" r="0.537388" fill="white"/>
<circle cx="1236.85" cy="104.604" r="0.537388" fill="white"/>
<ellipse cx="1317.46" cy="104.604" rx="0.537344" ry="0.537388" fill="white"/>
<ellipse cx="1398.06" cy="104.604" rx="0.537373" ry="0.537388" fill="white"/>
<ellipse cx="1478.67" cy="104.604" rx="0.537403" ry="0.537388" fill="white"/>
<ellipse cx="1559.28" cy="104.604" rx="0.537403" ry="0.537388" fill="white"/>
<ellipse cx="849.93" cy="158.343" rx="0.537392" ry="0.537388" fill="white"/>
<circle cx="930.538" cy="158.343" r="0.537388" fill="white"/>
<ellipse cx="1011.15" cy="158.343" rx="0.53741" ry="0.537388" fill="white"/>
<circle cx="1091.75" cy="158.343" r="0.537388" fill="white"/>
<ellipse cx="1172.36" cy="158.343" rx="0.537373" ry="0.537388" fill="white"/>
<ellipse cx="1252.97" cy="158.343" rx="0.537432" ry="0.537388" fill="white"/>
<ellipse cx="1333.58" cy="158.343" rx="0.537403" ry="0.537388" fill="white"/>
<ellipse cx="1414.19" cy="158.343" rx="0.537403" ry="0.537388" fill="white"/>
<ellipse cx="1494.79" cy="158.343" rx="0.537373" ry="0.537388" fill="white"/>
<ellipse cx="1575.4" cy="158.343" rx="0.53758" ry="0.537388" fill="white"/>
<circle cx="823.06" cy="213.156" r="0.537388" fill="white"/>
<ellipse cx="903.668" cy="213.156" rx="0.537399" ry="0.537388" fill="white"/>
<circle cx="984.276" cy="213.156" r="0.537388" fill="white"/>
<ellipse cx="1064.88" cy="213.156" rx="0.537373" ry="0.537388" fill="white"/>
<ellipse cx="1145.49" cy="213.156" rx="0.537403" ry="0.537388" fill="white"/>
<circle cx="1226.1" cy="213.156" r="0.537388" fill="white"/>
<ellipse cx="1306.71" cy="213.156" rx="0.537403" ry="0.537388" fill="white"/>
<ellipse cx="1387.32" cy="213.156" rx="0.537373" ry="0.537388" fill="white"/>
<ellipse cx="1467.92" cy="213.156" rx="0.537403" ry="0.537388" fill="white"/>
<ellipse cx="1548.53" cy="213.156" rx="0.537403" ry="0.537388" fill="white"/>
<circle cx="855.304" cy="266.895" r="0.537388" fill="white"/>
<circle cx="935.912" cy="266.895" r="0.537388" fill="white"/>
<ellipse cx="1016.52" cy="266.895" rx="0.537381" ry="0.537388" fill="white"/>
<ellipse cx="1097.13" cy="266.895" rx="0.537403" ry="0.537388" fill="white"/>
<circle cx="1177.74" cy="266.895" r="0.537388" fill="white"/>
<circle cx="1258.34" cy="266.895" r="0.537388" fill="white"/>
<ellipse cx="1338.95" cy="266.895" rx="0.537373" ry="0.537388" fill="white"/>
<ellipse cx="1419.56" cy="266.895" rx="0.537403" ry="0.537388" fill="white"/>
<ellipse cx="1500.17" cy="266.895" rx="0.537403" ry="0.537388" fill="white"/>
<ellipse cx="844.556" cy="320.633" rx="0.537381" ry="0.537388" fill="white"/>
<ellipse cx="925.164" cy="320.633" rx="0.537395" ry="0.537388" fill="white"/>
<ellipse cx="1005.77" cy="320.633" rx="0.537358" ry="0.537388" fill="white"/>
<circle cx="1086.38" cy="320.633" r="0.537388" fill="white"/>
<circle cx="1166.99" cy="320.633" r="0.537388" fill="white"/>
<circle cx="1247.6" cy="320.633" r="0.537388" fill="white"/>
<ellipse cx="1328.2" cy="320.633" rx="0.537432" ry="0.537388" fill="white"/>
<ellipse cx="1408.81" cy="320.633" rx="0.537373" ry="0.537388" fill="white"/>
<ellipse cx="1489.42" cy="320.633" rx="0.537403" ry="0.537388" fill="white"/>
<ellipse cx="1570.03" cy="320.633" rx="0.537285" ry="0.537388" fill="white"/>
<ellipse cx="876.799" cy="374.372" rx="0.537388" ry="0.537373" fill="white"/>
<ellipse cx="957.407" cy="374.372" rx="0.537381" ry="0.537373" fill="white"/>
<ellipse cx="1038.01" cy="374.372" rx="0.53741" ry="0.537373" fill="white"/>
<ellipse cx="1118.62" cy="374.372" rx="0.537388" ry="0.537373" fill="white"/>
<ellipse cx="1199.23" cy="374.372" rx="0.537388" ry="0.537373" fill="white"/>
<ellipse cx="1279.84" cy="374.372" rx="0.537432" ry="0.537373" fill="white"/>
<circle cx="1360.45" cy="374.372" r="0.537373" fill="white"/>
<ellipse cx="1441.05" cy="374.372" rx="0.537403" ry="0.537373" fill="white"/>
<circle cx="1521.66" cy="374.372" r="0.537373" fill="white"/>
<ellipse cx="833.808" cy="428.111" rx="0.537388" ry="0.537403" fill="white"/>
<ellipse cx="914.416" cy="428.111" rx="0.537388" ry="0.537403" fill="white"/>
<ellipse cx="995.024" cy="428.111" rx="0.537366" ry="0.537403" fill="white"/>
<ellipse cx="1075.63" cy="428.111" rx="0.537373" ry="0.537403" fill="white"/>
<ellipse cx="1156.24" cy="428.111" rx="0.537388" ry="0.537403" fill="white"/>
<ellipse cx="1236.85" cy="428.111" rx="0.537388" ry="0.537403" fill="white"/>
<ellipse cx="1317.46" cy="428.111" rx="0.537344" ry="0.537403" fill="white"/>
<ellipse cx="1398.06" cy="428.111" rx="0.537373" ry="0.537403" fill="white"/>
<circle cx="1478.67" cy="428.111" r="0.537403" fill="white"/>
<circle cx="1559.28" cy="428.111" r="0.537403" fill="white"/>
<ellipse cx="849.93" cy="481.849" rx="0.537392" ry="0.537403" fill="white"/>
<ellipse cx="930.538" cy="481.849" rx="0.537388" ry="0.537403" fill="white"/>
<ellipse cx="1011.15" cy="481.849" rx="0.53741" ry="0.537403" fill="white"/>
<ellipse cx="1091.75" cy="481.849" rx="0.537388" ry="0.537403" fill="white"/>
<ellipse cx="1172.36" cy="481.849" rx="0.537373" ry="0.537403" fill="white"/>
<ellipse cx="1252.97" cy="481.849" rx="0.537432" ry="0.537403" fill="white"/>
<circle cx="1333.58" cy="481.849" r="0.537403" fill="white"/>
<circle cx="1414.19" cy="481.849" r="0.537403" fill="white"/>
<ellipse cx="1494.79" cy="481.849" rx="0.537373" ry="0.537403" fill="white"/>
<ellipse cx="1575.4" cy="481.849" rx="0.53758" ry="0.537403" fill="white"/>
<ellipse cx="887.547" cy="540.962" rx="0.537388" ry="0.537373" fill="white"/>
<ellipse cx="968.155" cy="540.962" rx="0.537388" ry="0.537373" fill="white"/>
<ellipse cx="1048.76" cy="540.962" rx="0.537403" ry="0.537373" fill="white"/>
<ellipse cx="1129.37" cy="540.962" rx="0.537388" ry="0.537373" fill="white"/>
<ellipse cx="1209.98" cy="540.962" rx="0.537388" ry="0.537373" fill="white"/>
<circle cx="1290.59" cy="540.962" r="0.537373" fill="white"/>
<ellipse cx="1371.19" cy="540.962" rx="0.537403" ry="0.537373" fill="white"/>
<ellipse cx="1451.8" cy="540.962" rx="0.537403" ry="0.537373" fill="white"/>
<circle cx="1532.41" cy="540.962" r="0.537373" fill="white"/>
<ellipse cx="855.304" cy="600.074" rx="0.537388" ry="0.537373" fill="white"/>
<ellipse cx="935.912" cy="600.074" rx="0.537388" ry="0.537373" fill="white"/>
<ellipse cx="1016.52" cy="600.074" rx="0.537381" ry="0.537373" fill="white"/>
<ellipse cx="1097.13" cy="600.074" rx="0.537403" ry="0.537373" fill="white"/>
<ellipse cx="1177.74" cy="600.074" rx="0.537388" ry="0.537373" fill="white"/>
<ellipse cx="1258.34" cy="600.074" rx="0.537388" ry="0.537373" fill="white"/>
<circle cx="1338.95" cy="600.074" r="0.537373" fill="white"/>
<ellipse cx="1419.56" cy="600.074" rx="0.537403" ry="0.537373" fill="white"/>
<ellipse cx="1500.17" cy="600.074" rx="0.537403" ry="0.537373" fill="white"/>
<ellipse cx="1580.78" cy="600.074" rx="0.537403" ry="0.537373" fill="white"/>
<circle cx="898.295" cy="658.112" r="0.537373" fill="white"/>
<ellipse cx="978.902" cy="658.112" rx="0.537388" ry="0.537373" fill="white"/>
<ellipse cx="1059.51" cy="658.112" rx="0.537417" ry="0.537373" fill="white"/>
<ellipse cx="1140.12" cy="658.112" rx="0.537388" ry="0.537373" fill="white"/>
<ellipse cx="1220.73" cy="658.112" rx="0.537329" ry="0.537373" fill="white"/>
<ellipse cx="1301.33" cy="658.112" rx="0.537432" ry="0.537373" fill="white"/>
<ellipse cx="1381.94" cy="658.112" rx="0.537403" ry="0.537373" fill="white"/>
<ellipse cx="1462.55" cy="658.112" rx="0.537403" ry="0.537373" fill="white"/>
<circle cx="1543.16" cy="658.112" r="0.537373" fill="white"/>
<ellipse cx="866.051" cy="717.225" rx="0.537388" ry="0.537403" fill="white"/>
<ellipse cx="946.659" cy="717.225" rx="0.537388" ry="0.537403" fill="white"/>
<ellipse cx="1027.27" cy="717.225" rx="0.537381" ry="0.537403" fill="white"/>
<ellipse cx="1107.88" cy="717.225" rx="0.537388" ry="0.537403" fill="white"/>
<ellipse cx="1188.48" cy="717.225" rx="0.537388" ry="0.537403" fill="white"/>
<ellipse cx="1269.09" cy="717.225" rx="0.537329" ry="0.537403" fill="white"/>
<ellipse cx="1349.7" cy="717.225" rx="0.537373" ry="0.537403" fill="white"/>
<circle cx="1430.31" cy="717.225" r="0.537403" fill="white"/>
<circle cx="1510.91" cy="717.225" r="0.537403" fill="white"/>
<circle cx="1591.52" cy="717.225" r="0.537403" fill="white"/>
<ellipse cx="833.808" cy="776.337" rx="0.537388" ry="0.537403" fill="white"/>
<ellipse cx="914.416" cy="776.337" rx="0.537388" ry="0.537403" fill="white"/>
<ellipse cx="995.024" cy="776.337" rx="0.537366" ry="0.537403" fill="white"/>
<ellipse cx="1075.63" cy="776.337" rx="0.537373" ry="0.537403" fill="white"/>
<ellipse cx="1156.24" cy="776.337" rx="0.537388" ry="0.537403" fill="white"/>
<ellipse cx="1236.85" cy="776.337" rx="0.537388" ry="0.537403" fill="white"/>
<ellipse cx="1317.46" cy="776.337" rx="0.537344" ry="0.537403" fill="white"/>
<ellipse cx="1398.06" cy="776.337" rx="0.537373" ry="0.537403" fill="white"/>
<circle cx="1478.67" cy="776.337" r="0.537403" fill="white"/>
<circle cx="1559.28" cy="776.337" r="0.537403" fill="white"/>
<ellipse cx="866.051" cy="835.45" rx="0.537388" ry="0.537373" fill="white"/>
<ellipse cx="946.659" cy="835.45" rx="0.537388" ry="0.537373" fill="white"/>
<ellipse cx="1027.27" cy="835.45" rx="0.537381" ry="0.537373" fill="white"/>
<ellipse cx="1107.88" cy="835.45" rx="0.537388" ry="0.537373" fill="white"/>
<ellipse cx="1188.48" cy="835.45" rx="0.537388" ry="0.537373" fill="white"/>
<ellipse cx="1269.09" cy="835.45" rx="0.537329" ry="0.537373" fill="white"/>
<circle cx="1349.7" cy="835.45" r="0.537373" fill="white"/>
<ellipse cx="1430.31" cy="835.45" rx="0.537403" ry="0.537373" fill="white"/>
<ellipse cx="1510.91" cy="835.45" rx="0.537403" ry="0.537373" fill="white"/>
<ellipse cx="844.556" cy="889.188" rx="0.537381" ry="0.537373" fill="white"/>
<ellipse cx="925.164" cy="889.188" rx="0.537395" ry="0.537373" fill="white"/>
<ellipse cx="1005.77" cy="889.188" rx="0.537358" ry="0.537373" fill="white"/>
<ellipse cx="1086.38" cy="889.188" rx="0.537388" ry="0.537373" fill="white"/>
<ellipse cx="1166.99" cy="889.188" rx="0.537388" ry="0.537373" fill="white"/>
<ellipse cx="1247.6" cy="889.188" rx="0.537388" ry="0.537373" fill="white"/>
<ellipse cx="1328.2" cy="889.188" rx="0.537432" ry="0.537373" fill="white"/>
<circle cx="1408.81" cy="889.188" r="0.537373" fill="white"/>
<ellipse cx="1489.42" cy="889.188" rx="0.537403" ry="0.537373" fill="white"/>
<ellipse cx="1489.42" cy="889.188" rx="0.537403" ry="0.537373" fill="white"/>
<ellipse cx="887.547" cy="942.927" rx="0.537388" ry="0.537432" fill="white"/>
<ellipse cx="968.155" cy="942.927" rx="0.537388" ry="0.537432" fill="white"/>
<ellipse cx="1048.76" cy="942.927" rx="0.537403" ry="0.537432" fill="white"/>
<ellipse cx="1129.37" cy="942.927" rx="0.537388" ry="0.537432" fill="white"/>
<ellipse cx="1209.98" cy="942.927" rx="0.537388" ry="0.537432" fill="white"/>
<ellipse cx="1290.59" cy="942.927" rx="0.537373" ry="0.537432" fill="white"/>
<ellipse cx="1371.19" cy="942.927" rx="0.537403" ry="0.537432" fill="white"/>
<ellipse cx="1451.8" cy="942.927" rx="0.537403" ry="0.537432" fill="white"/>
<ellipse cx="1532.41" cy="942.927" rx="0.537373" ry="0.537432" fill="white"/>
<ellipse cx="1591.52" cy="835.45" rx="0.537403" ry="0.537373" fill="white"/>
<ellipse cx="755.35" cy="18.6226" rx="0.537386" ry="0.537388" fill="white"/>
<ellipse cx="835.958" cy="18.6226" rx="0.537386" ry="0.537388" fill="white"/>
<ellipse cx="916.566" cy="18.6226" rx="0.537403" ry="0.537388" fill="white"/>
<ellipse cx="997.174" cy="18.6226" rx="0.537366" ry="0.537388" fill="white"/>
<circle cx="1077.78" cy="18.6226" r="0.537388" fill="white"/>
<circle cx="1158.39" cy="18.6226" r="0.537388" fill="white"/>
<ellipse cx="1239" cy="18.6226" rx="0.537432" ry="0.537388" fill="white"/>
<ellipse cx="1319.61" cy="18.6226" rx="0.537403" ry="0.537388" fill="white"/>
<ellipse cx="1400.21" cy="18.6226" rx="0.537373" ry="0.537388" fill="white"/>
<ellipse cx="1480.82" cy="18.6226" rx="0.537373" ry="0.537388" fill="white"/>
<ellipse cx="792.967" cy="72.3612" rx="0.537386" ry="0.537388" fill="white"/>
<circle cx="873.575" cy="72.3612" r="0.537388" fill="white"/>
<circle cx="954.183" cy="72.3612" r="0.537388" fill="white"/>
<ellipse cx="1034.79" cy="72.3612" rx="0.537366" ry="0.537388" fill="white"/>
<ellipse cx="1115.4" cy="72.3612" rx="0.537373" ry="0.537388" fill="white"/>
<ellipse cx="1196.01" cy="72.3612" rx="0.537403" ry="0.537388" fill="white"/>
<ellipse cx="1276.61" cy="72.3612" rx="0.537432" ry="0.537388" fill="white"/>
<ellipse cx="1357.22" cy="72.3612" rx="0.537373" ry="0.537388" fill="white"/>
<ellipse cx="1437.83" cy="72.3612" rx="0.537403" ry="0.537388" fill="white"/>
<ellipse cx="1518.44" cy="72.3612" rx="0.537373" ry="0.537388" fill="white"/>
<ellipse cx="776.845" cy="126.1" rx="0.537386" ry="0.537388" fill="white"/>
<circle cx="857.453" cy="126.1" r="0.537388" fill="white"/>
<circle cx="938.061" cy="126.1" r="0.537388" fill="white"/>
<ellipse cx="1018.67" cy="126.1" rx="0.537381" ry="0.537388" fill="white"/>
<circle cx="1099.28" cy="126.1" r="0.537388" fill="white"/>
<ellipse cx="1179.89" cy="126.1" rx="0.537432" ry="0.537388" fill="white"/>
<circle cx="1260.49" cy="126.1" r="0.537388" fill="white"/>
<ellipse cx="1341.1" cy="126.1" rx="0.537403" ry="0.537388" fill="white"/>
<ellipse cx="1421.71" cy="126.1" rx="0.537373" ry="0.537388" fill="white"/>
<ellipse cx="1502.32" cy="126.1" rx="0.537373" ry="0.537388" fill="white"/>
<ellipse cx="792.967" cy="179.838" rx="0.537386" ry="0.537388" fill="white"/>
<circle cx="873.575" cy="179.838" r="0.537388" fill="white"/>
<circle cx="954.183" cy="179.838" r="0.537388" fill="white"/>
<ellipse cx="1034.79" cy="179.838" rx="0.537366" ry="0.537388" fill="white"/>
<ellipse cx="1115.4" cy="179.838" rx="0.537373" ry="0.537388" fill="white"/>
<ellipse cx="1196.01" cy="179.838" rx="0.537403" ry="0.537388" fill="white"/>
<ellipse cx="1276.61" cy="179.838" rx="0.537432" ry="0.537388" fill="white"/>
<ellipse cx="1357.22" cy="179.838" rx="0.537373" ry="0.537388" fill="white"/>
<ellipse cx="1437.83" cy="179.838" rx="0.537403" ry="0.537388" fill="white"/>
<ellipse cx="1518.44" cy="179.838" rx="0.537373" ry="0.537388" fill="white"/>
<ellipse cx="766.097" cy="234.652" rx="0.537386" ry="0.537388" fill="white"/>
<ellipse cx="846.705" cy="234.652" rx="0.537379" ry="0.537388" fill="white"/>
<circle cx="927.313" cy="234.652" r="0.537388" fill="white"/>
<circle cx="1007.92" cy="234.652" r="0.537388" fill="white"/>
<circle cx="1088.53" cy="234.652" r="0.537388" fill="white"/>
<circle cx="1169.14" cy="234.652" r="0.537388" fill="white"/>
<ellipse cx="1249.75" cy="234.652" rx="0.537329" ry="0.537388" fill="white"/>
<ellipse cx="1330.35" cy="234.652" rx="0.537373" ry="0.537388" fill="white"/>
<ellipse cx="1410.96" cy="234.652" rx="0.537373" ry="0.537388" fill="white"/>
<ellipse cx="1491.57" cy="234.652" rx="0.537403" ry="0.537388" fill="white"/>
<ellipse cx="798.341" cy="288.39" rx="0.537386" ry="0.537388" fill="white"/>
<circle cx="878.949" cy="288.39" r="0.537388" fill="white"/>
<circle cx="959.557" cy="288.39" r="0.537388" fill="white"/>
<circle cx="1040.16" cy="288.39" r="0.537388" fill="white"/>
<circle cx="1120.77" cy="288.39" r="0.537388" fill="white"/>
<ellipse cx="1201.38" cy="288.39" rx="0.537329" ry="0.537388" fill="white"/>
<circle cx="1281.99" cy="288.39" r="0.537388" fill="white"/>
<ellipse cx="1362.6" cy="288.39" rx="0.537373" ry="0.537388" fill="white"/>
<ellipse cx="1443.2" cy="288.39" rx="0.537403" ry="0.537388" fill="white"/>
<ellipse cx="787.593" cy="342.129" rx="0.537387" ry="0.537373" fill="white"/>
<ellipse cx="868.201" cy="342.129" rx="0.537388" ry="0.537373" fill="white"/>
<ellipse cx="948.809" cy="342.129" rx="0.537388" ry="0.537373" fill="white"/>
<ellipse cx="1029.42" cy="342.129" rx="0.537366" ry="0.537373" fill="white"/>
<ellipse cx="1110.02" cy="342.129" rx="0.537388" ry="0.537373" fill="white"/>
<ellipse cx="1190.63" cy="342.129" rx="0.537432" ry="0.537373" fill="white"/>
<ellipse cx="1271.24" cy="342.129" rx="0.537388" ry="0.537373" fill="white"/>
<circle cx="1351.85" cy="342.129" r="0.537373" fill="white"/>
<circle cx="1432.46" cy="342.129" r="0.537373" fill="white"/>
<ellipse cx="1513.06" cy="342.129" rx="0.537403" ry="0.537373" fill="white"/>
<ellipse cx="819.836" cy="395.868" rx="0.537387" ry="0.537403" fill="white"/>
<ellipse cx="900.444" cy="395.868" rx="0.537388" ry="0.537403" fill="white"/>
<ellipse cx="981.052" cy="395.868" rx="0.537388" ry="0.537403" fill="white"/>
<ellipse cx="1061.66" cy="395.868" rx="0.537388" ry="0.537403" fill="white"/>
<ellipse cx="1142.27" cy="395.868" rx="0.537388" ry="0.537403" fill="white"/>
<ellipse cx="1222.88" cy="395.868" rx="0.537388" ry="0.537403" fill="white"/>
<ellipse cx="1303.48" cy="395.868" rx="0.537314" ry="0.537403" fill="white"/>
<ellipse cx="1384.09" cy="395.868" rx="0.537373" ry="0.537403" fill="white"/>
<circle cx="1464.7" cy="395.868" r="0.537403" fill="white"/>
<ellipse cx="1545.31" cy="395.868" rx="0.537373" ry="0.537403" fill="white"/>
<ellipse cx="776.845" cy="449.606" rx="0.537386" ry="0.537373" fill="white"/>
<ellipse cx="857.453" cy="449.606" rx="0.537388" ry="0.537373" fill="white"/>
<ellipse cx="938.061" cy="449.606" rx="0.537388" ry="0.537373" fill="white"/>
<ellipse cx="1018.67" cy="449.606" rx="0.537381" ry="0.537373" fill="white"/>
<ellipse cx="1099.28" cy="449.606" rx="0.537388" ry="0.537373" fill="white"/>
<ellipse cx="1179.89" cy="449.606" rx="0.537432" ry="0.537373" fill="white"/>
<ellipse cx="1260.49" cy="449.606" rx="0.537388" ry="0.537373" fill="white"/>
<ellipse cx="1341.1" cy="449.606" rx="0.537403" ry="0.537373" fill="white"/>
<circle cx="1421.71" cy="449.606" r="0.537373" fill="white"/>
<circle cx="1502.32" cy="449.606" r="0.537373" fill="white"/>
<ellipse cx="792.967" cy="503.345" rx="0.537386" ry="0.537403" fill="white"/>
<ellipse cx="873.575" cy="503.345" rx="0.537388" ry="0.537403" fill="white"/>
<ellipse cx="954.183" cy="503.345" rx="0.537388" ry="0.537403" fill="white"/>
<ellipse cx="1034.79" cy="503.345" rx="0.537366" ry="0.537403" fill="white"/>
<ellipse cx="1115.4" cy="503.345" rx="0.537373" ry="0.537403" fill="white"/>
<circle cx="1196.01" cy="503.345" r="0.537403" fill="white"/>
<ellipse cx="1276.61" cy="503.345" rx="0.537432" ry="0.537403" fill="white"/>
<ellipse cx="1357.22" cy="503.345" rx="0.537373" ry="0.537403" fill="white"/>
<circle cx="1437.83" cy="503.345" r="0.537403" fill="white"/>
<ellipse cx="1518.44" cy="503.345" rx="0.537373" ry="0.537403" fill="white"/>
<ellipse cx="830.584" cy="562.457" rx="0.537386" ry="0.537373" fill="white"/>
<circle cx="911.192" cy="562.457" r="0.537373" fill="white"/>
<ellipse cx="991.8" cy="562.457" rx="0.537395" ry="0.537373" fill="white"/>
<ellipse cx="1072.41" cy="562.457" rx="0.537388" ry="0.537373" fill="white"/>
<circle cx="1153.02" cy="562.457" r="0.537373" fill="white"/>
<ellipse cx="1233.62" cy="562.457" rx="0.537388" ry="0.537373" fill="white"/>
<ellipse cx="1314.23" cy="562.457" rx="0.537432" ry="0.537373" fill="white"/>
<ellipse cx="1394.84" cy="562.457" rx="0.537403" ry="0.537373" fill="white"/>
<circle cx="1475.45" cy="562.457" r="0.537373" fill="white"/>
<circle cx="1556.06" cy="562.457" r="0.537373" fill="white"/>
<ellipse cx="798.341" cy="621.57" rx="0.537386" ry="0.537403" fill="white"/>
<ellipse cx="878.949" cy="621.57" rx="0.537388" ry="0.537403" fill="white"/>
<ellipse cx="959.557" cy="621.57" rx="0.537388" ry="0.537403" fill="white"/>
<ellipse cx="1040.16" cy="621.57" rx="0.537388" ry="0.537403" fill="white"/>
<ellipse cx="1120.77" cy="621.57" rx="0.537388" ry="0.537403" fill="white"/>
<ellipse cx="1201.38" cy="621.57" rx="0.537329" ry="0.537403" fill="white"/>
<ellipse cx="1281.99" cy="621.57" rx="0.537388" ry="0.537403" fill="white"/>
<ellipse cx="1362.6" cy="621.57" rx="0.537373" ry="0.537403" fill="white"/>
<circle cx="1443.2" cy="621.57" r="0.537403" fill="white"/>
<ellipse cx="1523.81" cy="621.57" rx="0.537373" ry="0.537403" fill="white"/>
<ellipse cx="841.332" cy="679.608" rx="0.537392" ry="0.537344" fill="white"/>
<ellipse cx="921.939" cy="679.608" rx="0.537373" ry="0.537344" fill="white"/>
<ellipse cx="1002.55" cy="679.608" rx="0.537417" ry="0.537344" fill="white"/>
<ellipse cx="1083.16" cy="679.608" rx="0.537388" ry="0.537344" fill="white"/>
<ellipse cx="1163.76" cy="679.608" rx="0.537373" ry="0.537344" fill="white"/>
<ellipse cx="1244.37" cy="679.608" rx="0.537403" ry="0.537344" fill="white"/>
<ellipse cx="1324.98" cy="679.608" rx="0.537432" ry="0.537344" fill="white"/>
<ellipse cx="1405.59" cy="679.608" rx="0.537373" ry="0.537344" fill="white"/>
<ellipse cx="1486.2" cy="679.608" rx="0.537403" ry="0.537344" fill="white"/>
<ellipse cx="809.088" cy="738.72" rx="0.537386" ry="0.537403" fill="white"/>
<ellipse cx="889.696" cy="738.72" rx="0.537373" ry="0.537403" fill="white"/>
<ellipse cx="970.304" cy="738.72" rx="0.537388" ry="0.537403" fill="white"/>
<ellipse cx="1050.91" cy="738.72" rx="0.537417" ry="0.537403" fill="white"/>
<ellipse cx="1131.52" cy="738.72" rx="0.537388" ry="0.537403" fill="white"/>
<ellipse cx="1212.13" cy="738.72" rx="0.537388" ry="0.537403" fill="white"/>
<circle cx="1292.74" cy="738.72" r="0.537403" fill="white"/>
<ellipse cx="1373.34" cy="738.72" rx="0.537373" ry="0.537403" fill="white"/>
<ellipse cx="1453.95" cy="738.72" rx="0.537373" ry="0.537403" fill="white"/>
<circle cx="1534.56" cy="738.72" r="0.537403" fill="white"/>
<ellipse cx="776.845" cy="797.833" rx="0.537386" ry="0.537373" fill="white"/>
<ellipse cx="857.453" cy="797.833" rx="0.537388" ry="0.537373" fill="white"/>
<ellipse cx="938.061" cy="797.833" rx="0.537388" ry="0.537373" fill="white"/>
<ellipse cx="1018.67" cy="797.833" rx="0.537381" ry="0.537373" fill="white"/>
<ellipse cx="1099.28" cy="797.833" rx="0.537388" ry="0.537373" fill="white"/>
<ellipse cx="1179.89" cy="797.833" rx="0.537432" ry="0.537373" fill="white"/>
<ellipse cx="1260.49" cy="797.833" rx="0.537388" ry="0.537373" fill="white"/>
<ellipse cx="1341.1" cy="797.833" rx="0.537403" ry="0.537373" fill="white"/>
<circle cx="1421.71" cy="797.833" r="0.537373" fill="white"/>
<circle cx="1502.32" cy="797.833" r="0.537373" fill="white"/>
<ellipse cx="809.088" cy="856.945" rx="0.537386" ry="0.537314" fill="white"/>
<ellipse cx="889.696" cy="856.945" rx="0.537373" ry="0.537314" fill="white"/>
<ellipse cx="970.304" cy="856.945" rx="0.537388" ry="0.537314" fill="white"/>
<ellipse cx="1050.91" cy="856.945" rx="0.537417" ry="0.537314" fill="white"/>
<ellipse cx="1131.52" cy="856.945" rx="0.537388" ry="0.537314" fill="white"/>
<ellipse cx="1212.13" cy="856.945" rx="0.537388" ry="0.537314" fill="white"/>
<ellipse cx="1292.74" cy="856.945" rx="0.537403" ry="0.537314" fill="white"/>
<ellipse cx="1373.34" cy="856.945" rx="0.537373" ry="0.537314" fill="white"/>
<ellipse cx="1453.95" cy="856.945" rx="0.537373" ry="0.537314" fill="white"/>
<ellipse cx="787.593" cy="910.684" rx="0.537387" ry="0.537373" fill="white"/>
<ellipse cx="868.201" cy="910.684" rx="0.537388" ry="0.537373" fill="white"/>
<ellipse cx="948.809" cy="910.684" rx="0.537388" ry="0.537373" fill="white"/>
<ellipse cx="1029.42" cy="910.684" rx="0.537366" ry="0.537373" fill="white"/>
<ellipse cx="1110.02" cy="910.684" rx="0.537388" ry="0.537373" fill="white"/>
<ellipse cx="1190.63" cy="910.684" rx="0.537432" ry="0.537373" fill="white"/>
<ellipse cx="1271.24" cy="910.684" rx="0.537388" ry="0.537373" fill="white"/>
<circle cx="1351.85" cy="910.684" r="0.537373" fill="white"/>
<circle cx="1432.46" cy="910.684" r="0.537373" fill="white"/>
<circle cx="1432.46" cy="910.684" r="0.537373" fill="white"/>
<ellipse cx="1534.56" cy="856.945" rx="0.537403" ry="0.537314" fill="white"/>
<ellipse cx="795.117" cy="67.5247" rx="1.07477" ry="1.07478" fill="white"/>
<ellipse cx="956.332" cy="72.8986" rx="1.07478" ry="1.07477" fill="white"/>
<circle cx="1117.55" cy="67.5247" r="1.07478" fill="white"/>
<ellipse cx="1278.76" cy="62.1508" rx="1.07473" ry="1.07477" fill="white"/>
<circle cx="1439.98" cy="67.5247" r="1.07478" fill="white"/>
<ellipse cx="859.603" cy="175.002" rx="1.07476" ry="1.07478" fill="white"/>
<ellipse cx="1020.82" cy="180.376" rx="1.07475" ry="1.07478" fill="white"/>
<ellipse cx="1182.03" cy="175.002" rx="1.07473" ry="1.07478" fill="white"/>
<circle cx="1343.25" cy="169.628" r="1.07478" fill="white"/>
<ellipse cx="1504.47" cy="175.002" rx="1.07475" ry="1.07478" fill="white"/>
<ellipse cx="832.733" cy="283.554" rx="1.07477" ry="1.07478" fill="white"/>
<circle cx="993.949" cy="288.928" r="1.07478" fill="white"/>
<circle cx="1155.17" cy="283.554" r="1.07478" fill="white"/>
<ellipse cx="1316.38" cy="278.18" rx="1.07481" ry="1.07476" fill="white"/>
<ellipse cx="1477.6" cy="283.554" rx="1.07475" ry="1.07478" fill="white"/>
<ellipse cx="805.864" cy="391.031" rx="1.07477" ry="1.07478" fill="white"/>
<ellipse cx="967.08" cy="396.405" rx="1.07477" ry="1.07478" fill="white"/>
<ellipse cx="1128.3" cy="391.031" rx="1.07476" ry="1.07478" fill="white"/>
<ellipse cx="1289.51" cy="385.657" rx="1.07483" ry="1.07478" fill="white"/>
<circle cx="1450.73" cy="391.031" r="1.07478" fill="white"/>
<ellipse cx="891.846" cy="498.508" rx="1.07478" ry="1.07478" fill="white"/>
<ellipse cx="1053.06" cy="503.882" rx="1.07478" ry="1.07481" fill="white"/>
<ellipse cx="1214.28" cy="498.508" rx="1.07476" ry="1.07478" fill="white"/>
<circle cx="1375.49" cy="493.134" r="1.07478" fill="white"/>
<circle cx="1536.71" cy="498.508" r="1.07478" fill="white"/>
<ellipse cx="791.355" cy="605.985" rx="1.07477" ry="1.07478" fill="white"/>
<ellipse cx="952.571" cy="611.359" rx="1.07477" ry="1.07478" fill="white"/>
<circle cx="1113.79" cy="605.985" r="1.07478" fill="white"/>
<circle cx="1275" cy="600.612" r="1.07478" fill="white"/>
<circle cx="1436.22" cy="605.985" r="1.07478" fill="white"/>
<ellipse cx="1597.43" cy="610.285" rx="1.07469" ry="1.07481" fill="white"/>
<ellipse cx="803.715" cy="698.416" rx="1.07477" ry="1.07478" fill="white"/>
<circle cx="964.93" cy="703.79" r="1.07478" fill="white"/>
<circle cx="1126.15" cy="698.416" r="1.07478" fill="white"/>
<ellipse cx="1287.36" cy="693.042" rx="1.07475" ry="1.07478" fill="white"/>
<circle cx="1448.58" cy="698.416" r="1.07478" fill="white"/>
<ellipse cx="842.944" cy="813.417" rx="1.07477" ry="1.07478" fill="white"/>
<circle cx="1004.16" cy="818.791" r="1.07475" fill="white"/>
<circle cx="1165.38" cy="813.417" r="1.07478" fill="white"/>
<ellipse cx="1326.59" cy="808.043" rx="1.07472" ry="1.07478" fill="white"/>
<ellipse cx="1487.81" cy="813.417" rx="1.07475" ry="1.07478" fill="white"/>
<ellipse cx="806.939" cy="928.418" rx="1.07477" ry="1.07481" fill="white"/>
<ellipse cx="968.155" cy="933.791" rx="1.07477" ry="1.07475" fill="white"/>
<ellipse cx="1129.37" cy="928.418" rx="1.07478" ry="1.07481" fill="white"/>
<ellipse cx="1290.59" cy="923.044" rx="1.07478" ry="1.07475" fill="white"/>
<ellipse cx="1451.8" cy="928.418" rx="1.07478" ry="1.07481" fill="white"/>
<ellipse cx="1529.19" cy="909.072" rx="1.07478" ry="1.07481" fill="white"/>
<ellipse cx="752.125" cy="19.16" rx="1.07477" ry="1.07477" fill="white"/>
<ellipse cx="913.341" cy="24.5338" rx="1.07476" ry="1.07477" fill="white"/>
<ellipse cx="1074.56" cy="19.16" rx="1.07476" ry="1.07477" fill="white"/>
<ellipse cx="1235.77" cy="13.7861" rx="1.07476" ry="1.07478" fill="white"/>
<ellipse cx="1396.99" cy="19.16" rx="1.07478" ry="1.07477" fill="white"/>
<ellipse cx="1558.2" cy="24.5338" rx="1.07481" ry="1.07477" fill="white"/>
<ellipse cx="719.882" cy="126.637" rx="1.07477" ry="1.07478" fill="white"/>
<ellipse cx="881.098" cy="132.011" rx="1.07477" ry="1.07479" fill="white"/>
<circle cx="1042.31" cy="126.637" r="1.07478" fill="white"/>
<ellipse cx="1203.53" cy="121.263" rx="1.07482" ry="1.07478" fill="white"/>
<ellipse cx="1364.75" cy="126.637" rx="1.07481" ry="1.07478" fill="white"/>
<ellipse cx="1525.96" cy="132.011" rx="1.07475" ry="1.07479" fill="white"/>
<ellipse cx="784.369" cy="235.189" rx="1.07477" ry="1.07478" fill="white"/>
<ellipse cx="945.585" cy="240.563" rx="1.07477" ry="1.07476" fill="white"/>
<circle cx="1106.8" cy="235.189" r="1.07478" fill="white"/>
<ellipse cx="1268.02" cy="229.815" rx="1.07479" ry="1.07478" fill="white"/>
<ellipse cx="1429.23" cy="235.189" rx="1.07475" ry="1.07478" fill="white"/>
<circle cx="1590.45" cy="239.488" r="1.07478" fill="white"/>
<ellipse cx="757.499" cy="342.666" rx="1.07477" ry="1.07475" fill="white"/>
<ellipse cx="918.715" cy="348.04" rx="1.07477" ry="1.07478" fill="white"/>
<ellipse cx="1079.93" cy="342.666" rx="1.07476" ry="1.07475" fill="white"/>
<ellipse cx="1241.15" cy="337.292" rx="1.07482" ry="1.07478" fill="white"/>
<ellipse cx="1402.36" cy="342.666" rx="1.07478" ry="1.07475" fill="white"/>
<circle cx="1563.58" cy="348.04" r="1.07478" fill="white"/>
<ellipse cx="730.63" cy="449.069" rx="1.07477" ry="1.07478" fill="white"/>
<ellipse cx="891.846" cy="455.517" rx="1.07478" ry="1.07478" fill="white"/>
<circle cx="1053.06" cy="450.144" r="1.07478" fill="white"/>
<ellipse cx="1214.28" cy="444.77" rx="1.07476" ry="1.07478" fill="white"/>
<circle cx="1375.49" cy="450.144" r="1.07478" fill="white"/>
<circle cx="1536.71" cy="455.517" r="1.07478" fill="white"/>
<ellipse cx="816.612" cy="557.621" rx="1.07477" ry="1.07475" fill="white"/>
<circle cx="977.828" cy="562.995" r="1.07478" fill="white"/>
<ellipse cx="1139.04" cy="557.621" rx="1.07478" ry="1.07475" fill="white"/>
<ellipse cx="1300.26" cy="552.247" rx="1.07483" ry="1.07478" fill="white"/>
<ellipse cx="1461.48" cy="557.621" rx="1.07481" ry="1.07475" fill="white"/>
<ellipse cx="716.121" cy="664.023" rx="1.07477" ry="1.07478" fill="white"/>
<ellipse cx="877.336" cy="669.397" rx="1.07477" ry="1.07478" fill="white"/>
<ellipse cx="1038.55" cy="664.023" rx="1.07479" ry="1.07478" fill="white"/>
<ellipse cx="1199.77" cy="658.65" rx="1.07482" ry="1.07478" fill="white"/>
<circle cx="1360.98" cy="664.023" r="1.07478" fill="white"/>
<circle cx="1522.2" cy="669.397" r="1.07478" fill="white"/>
<ellipse cx="728.481" cy="757.529" rx="1.07477" ry="1.07475" fill="white"/>
<ellipse cx="889.696" cy="762.903" rx="1.07476" ry="1.07478" fill="white"/>
<ellipse cx="1050.91" cy="757.529" rx="1.07476" ry="1.07475" fill="white"/>
<ellipse cx="1212.13" cy="752.155" rx="1.07482" ry="1.07481" fill="white"/>
<ellipse cx="1373.34" cy="757.529" rx="1.07478" ry="1.07475" fill="white"/>
<circle cx="1534.56" cy="762.903" r="1.07478" fill="white"/>
<ellipse cx="767.71" cy="872.529" rx="1.07477" ry="1.07475" fill="white"/>
<ellipse cx="928.926" cy="877.903" rx="1.07477" ry="1.07475" fill="white"/>
<ellipse cx="1090.14" cy="872.529" rx="1.07478" ry="1.07475" fill="white"/>
<ellipse cx="1251.36" cy="867.156" rx="1.07473" ry="1.07475" fill="white"/>
<ellipse cx="1412.57" cy="872.529" rx="1.07478" ry="1.07475" fill="white"/>
<ellipse cx="789.742" cy="951.74" rx="0.537386" ry="0.537314" fill="white"/>
<ellipse cx="870.35" cy="951.74" rx="0.537373" ry="0.537314" fill="white"/>
<ellipse cx="950.958" cy="951.74" rx="0.537388" ry="0.537314" fill="white"/>
<ellipse cx="1031.57" cy="951.74" rx="0.537417" ry="0.537314" fill="white"/>
<ellipse cx="1112.17" cy="951.74" rx="0.537388" ry="0.537314" fill="white"/>
<ellipse cx="1192.78" cy="951.74" rx="0.537388" ry="0.537314" fill="white"/>
<ellipse cx="1273.39" cy="951.74" rx="0.537403" ry="0.537314" fill="white"/>
<ellipse cx="1354" cy="951.74" rx="0.537373" ry="0.537314" fill="white"/>
<ellipse cx="1434.61" cy="951.74" rx="0.537373" ry="0.537314" fill="white"/>
<ellipse cx="1515.21" cy="951.74" rx="0.537403" ry="0.537314" fill="white"/>
<ellipse cx="1573.79" cy="877.903" rx="1.07469" ry="1.07475" fill="white"/>
<path d="M601.943 78.7782C604.445 84.4991 601.836 91.1655 596.115 93.6678C590.394 96.1702 583.728 93.5611 581.225 87.8401C578.723 82.1192 581.332 75.4529 587.053 72.9505C592.774 70.4481 599.44 73.0572 601.943 78.7782Z" fill="url(#paint0_linear)"/>
<path d="M587.083 80.0036C587.468 80.8837 587.067 81.9094 586.187 82.2944C585.307 82.6795 584.281 82.2782 583.896 81.398C583.511 80.5179 583.912 79.4923 584.793 79.1073C585.673 78.7222 586.698 79.1235 587.083 80.0036Z" fill="url(#paint1_linear)"/>
<path d="M597.477 75.3355C597.698 75.6494 597.701 76.0284 597.483 76.182C597.265 76.3356 596.909 76.2057 596.688 75.8919C596.466 75.578 596.464 75.199 596.681 75.0454C596.899 74.8917 597.255 75.0216 597.477 75.3355Z" fill="url(#paint2_linear)"/>
<path d="M601.701 83.5242C602.045 83.644 602.19 84.1271 602.024 84.6032C601.858 85.0793 601.445 85.3682 601.101 85.2483C600.757 85.1285 600.612 84.6454 600.778 84.1693C600.944 83.6932 601.357 83.4043 601.701 83.5242Z" fill="url(#paint3_linear)"/>
<path d="M591.253 72.4114C591.276 72.6055 590.888 72.8093 590.387 72.8666C589.886 72.9239 589.462 72.813 589.44 72.6189C589.417 72.4248 589.805 72.221 590.306 72.1637C590.807 72.1064 591.231 72.2173 591.253 72.4114Z" fill="url(#paint4_linear)"/>
<path d="M595.497 89.8049C595.74 91.0699 594.721 92.329 593.22 92.6172C591.719 92.9055 590.305 92.1137 590.063 90.8487C589.82 89.5838 590.839 88.3246 592.34 88.0364C593.841 87.7482 595.255 88.5399 595.497 89.8049Z" fill="url(#paint5_linear)"/>
<path d="M587.769 72.4977C587.845 72.6521 587.395 73.0268 586.765 73.3346C586.135 73.6424 585.563 73.7669 585.488 73.6125C585.412 73.4581 585.862 73.0834 586.492 72.7756C587.122 72.4677 587.694 72.3433 587.769 72.4977Z" fill="#79101A"/>
<path d="M587.868 72.7006C587.998 72.967 587.593 73.4325 586.963 73.7404C586.333 74.0482 585.717 74.0818 585.587 73.8154C585.456 73.549 585.862 73.0835 586.492 72.7757C587.122 72.4679 587.738 72.4342 587.868 72.7006Z" fill="#79101A"/>
<path d="M587.408 72.5296C587.43 72.5745 587.09 72.7857 586.649 73.0013C586.208 73.2169 585.832 73.3552 585.81 73.3103C585.789 73.2654 586.128 73.0542 586.57 72.8386C587.011 72.623 587.387 72.4847 587.408 72.5296Z" fill="#400205"/>
<path d="M579.886 84.9759C580.154 84.8945 580.64 85.7135 580.972 86.8052C581.305 87.8969 581.358 88.848 581.09 88.9294C580.823 89.0109 580.336 88.1919 580.004 87.1001C579.671 86.0084 579.619 85.0574 579.886 84.9759Z" fill="url(#paint6_linear)"/>
<path d="M580.237 84.869C580.699 84.7285 581.343 85.4995 581.675 86.5913C582.007 87.683 581.903 88.6819 581.441 88.8224C580.98 88.963 580.336 88.1919 580.004 87.1002C579.671 86.0085 579.776 85.0096 580.237 84.869Z" fill="url(#paint7_linear)"/>
<path d="M579.845 85.5637C579.922 85.54 580.174 86.1406 580.407 86.9052C580.64 87.6698 580.766 88.3088 580.688 88.3325C580.61 88.3562 580.358 87.7556 580.125 86.991C579.892 86.2264 579.767 85.5874 579.845 85.5637Z" fill="#2A0204"/>
<path d="M589.423 94.4037C589.433 94.2556 590.366 94.1539 591.507 94.1766C592.647 94.1992 593.563 94.3376 593.552 94.4857C593.542 94.6338 592.609 94.7355 591.469 94.7128C590.328 94.6902 589.412 94.5518 589.423 94.4037Z" fill="url(#paint8_linear)"/>
<path d="M589.437 94.209C589.455 93.9535 590.394 93.7647 591.534 93.7874C592.675 93.81 593.584 94.0355 593.566 94.2911C593.548 94.5466 592.609 94.7354 591.469 94.7127C590.328 94.6901 589.418 94.4646 589.437 94.209Z" fill="url(#paint9_linear)"/>
<path d="M589.965 94.5263C589.968 94.4832 590.618 94.4612 591.416 94.477C592.215 94.4929 592.86 94.5407 592.857 94.5838C592.854 94.6269 592.204 94.6489 591.405 94.6331C590.607 94.6172 589.962 94.5694 589.965 94.5263Z" fill="#150303"/>
<path d="M601.17 89.653C600.948 89.5518 601.103 88.7343 601.516 87.827C601.929 86.9198 602.444 86.2664 602.666 86.3676C602.889 86.4688 602.734 87.2863 602.321 88.1936C601.907 89.1009 601.392 89.7543 601.17 89.653Z" fill="url(#paint10_linear)"/>
<path d="M600.878 89.52C600.495 89.3453 600.519 88.4682 600.932 87.5609C601.345 86.6536 601.991 86.0597 602.374 86.2344C602.758 86.4091 602.734 87.2862 602.321 88.1935C601.908 89.1008 601.262 89.6946 600.878 89.52Z" fill="url(#paint11_linear)"/>
<path d="M601.537 89.2921C601.472 89.2627 601.654 88.7237 601.944 88.0883C602.233 87.4528 602.52 86.9616 602.585 86.9911C602.649 87.0205 602.467 87.5595 602.178 88.1949C601.889 88.8303 601.602 89.3216 601.537 89.2921Z" fill="#130406"/>
<path d="M601.23 77.0612C601.105 77.147 600.719 76.8004 600.369 76.2872C600.019 75.774 599.838 75.2884 599.963 75.2027C600.089 75.117 600.475 75.4635 600.825 75.9768C601.175 76.49 601.356 76.9755 601.23 77.0612Z" fill="url(#paint12_linear)"/>
<path d="M601.065 77.1739C600.848 77.3218 600.389 77.0257 600.039 76.5124C599.689 75.9992 599.581 75.4632 599.798 75.3153C600.015 75.1674 600.475 75.4636 600.825 75.9768C601.175 76.49 601.282 77.026 601.065 77.1739Z" fill="url(#paint13_linear)"/>
<path d="M601.157 76.7493C601.12 76.7743 600.892 76.5031 600.647 76.1437C600.402 75.7842 600.233 75.4726 600.27 75.4477C600.306 75.4227 600.534 75.6939 600.779 76.0533C601.024 76.4128 601.193 76.7244 601.157 76.7493Z" fill="#2E0102"/>
<path d="M594.187 81.788C594.187 82.3884 593.7 82.8751 593.1 82.8751C592.499 82.8751 592.013 82.3884 592.013 81.788C592.013 81.1876 592.499 80.7008 593.1 80.7008C593.7 80.7008 594.187 81.1876 594.187 81.788Z" fill="#5F0E17"/>
<path d="M584.794 89.7316C584.521 89.9667 583.982 89.7886 583.59 89.3337C583.198 88.8788 583.102 88.3194 583.375 88.0843C583.648 87.8491 584.187 88.0273 584.579 88.4822C584.97 88.9371 585.067 89.4964 584.794 89.7316Z" fill="#510E17"/>
<path d="M593.317 74.3953C593.317 74.7556 592.831 75.0476 592.23 75.0476C591.63 75.0476 591.143 74.7556 591.143 74.3953C591.143 74.0351 591.63 73.743 592.23 73.743C592.831 73.743 593.317 74.0351 593.317 74.3953Z" fill="#7A101B"/>
<path d="M599.733 88.15C599.97 88.4214 599.796 88.9614 599.343 89.3562C598.891 89.7509 598.332 89.8509 598.095 89.5794C597.858 89.308 598.033 88.7679 598.485 88.3732C598.938 87.9785 599.497 87.8785 599.733 88.15Z" fill="#3D0C14"/>
</g>
<defs>
<linearGradient id="paint0_linear" x1="587.053" y1="72.9504" x2="596.115" y2="93.6678" gradientUnits="userSpaceOnUse">
<stop stop-color="#7C101B"/>
<stop offset="1" stop-color="#20090F"/>
</linearGradient>
<linearGradient id="paint1_linear" x1="584.793" y1="79.1073" x2="586.187" y2="82.2944" gradientUnits="userSpaceOnUse">
<stop stop-color="#1C0C12"/>
<stop offset="1" stop-color="#6C131E"/>
</linearGradient>
<linearGradient id="paint2_linear" x1="596.681" y1="75.0454" x2="597.483" y2="76.182" gradientUnits="userSpaceOnUse">
<stop stop-color="#190B12"/>
<stop offset="1" stop-color="#8C1421"/>
</linearGradient>
<linearGradient id="paint3_linear" x1="600.778" y1="84.1693" x2="602.024" y2="84.6032" gradientUnits="userSpaceOnUse">
<stop stop-color="#250C14"/>
<stop offset="1" stop-color="#530D16"/>
</linearGradient>
<linearGradient id="paint4_linear" x1="590.306" y1="72.1637" x2="590.387" y2="72.8666" gradientUnits="userSpaceOnUse">
<stop stop-color="#310D14"/>
<stop offset="1" stop-color="#8C1520"/>
</linearGradient>
<linearGradient id="paint5_linear" x1="592.34" y1="88.0364" x2="593.22" y2="92.6172" gradientUnits="userSpaceOnUse">
<stop stop-color="#160B12"/>
<stop offset="1" stop-color="#4B0F18"/>
</linearGradient>
<linearGradient id="paint6_linear" x1="581.141" y1="88.9631" x2="580.054" y2="84.8319" gradientUnits="userSpaceOnUse">
<stop stop-color="#4A0C14"/>
<stop offset="1" stop-color="#5B0D16"/>
</linearGradient>
<linearGradient id="paint7_linear" x1="581.52" y1="88.8478" x2="580.366" y2="84.7327" gradientUnits="userSpaceOnUse">
<stop stop-color="#4A0C14"/>
<stop offset="1" stop-color="#5B0D16"/>
</linearGradient>
<linearGradient id="paint8_linear" x1="593.752" y1="94.3988" x2="589.415" y2="94.6191" gradientUnits="userSpaceOnUse">
<stop stop-color="#21090F"/>
<stop offset="1" stop-color="#280910"/>
</linearGradient>
<linearGradient id="paint9_linear" x1="593.771" y1="94.1383" x2="589.418" y2="94.1373" gradientUnits="userSpaceOnUse">
<stop stop-color="#21090F"/>
<stop offset="1" stop-color="#280910"/>
</linearGradient>
<linearGradient id="paint10_linear" x1="601.145" y1="89.6153" x2="602.667" y2="86.3538" gradientUnits="userSpaceOnUse">
<stop stop-color="#280910"/>
<stop offset="1" stop-color="#320A11"/>
</linearGradient>
<linearGradient id="paint11_linear" x1="600.827" y1="89.4706" x2="602.337" y2="86.2031" gradientUnits="userSpaceOnUse">
<stop stop-color="#280910"/>
<stop offset="1" stop-color="#320A11"/>
</linearGradient>
<linearGradient id="paint12_linear" x1="599.84" y1="75.0475" x2="601.362" y2="77.0044" gradientUnits="userSpaceOnUse">
<stop stop-color="#5E0E17"/>
<stop offset="1" stop-color="#550D16"/>
</linearGradient>
<linearGradient id="paint13_linear" x1="599.667" y1="75.166" x2="601.139" y2="77.1648" gradientUnits="userSpaceOnUse">
<stop stop-color="#5E0E17"/>
<stop offset="1" stop-color="#550D16"/>
</linearGradient>
<clipPath id="clip0">
<rect width="1600" height="960" fill="white"/>
</clipPath>
</defs>
</svg>
