<svg width="65" height="63" viewBox="0 0 65 63" fill="none" xmlns="http://www.w3.org/2000/svg">
<path d="M61.4305 18.6369C68.311 34.367 61.137 52.6964 45.407 59.5768C29.6769 66.4573 11.3475 59.2833 4.46704 43.5533C-2.41342 27.8232 4.76058 9.49381 20.4906 2.61334C36.2206 -4.26712 54.5501 2.90688 61.4305 18.6369Z" fill="url(#paint0_linear)"/>
<path d="M20.5745 22.0063C21.6332 24.4262 20.5298 27.2462 18.1099 28.3049C15.69 29.3637 12.87 28.2602 11.8112 25.8403C10.7525 23.4204 11.8559 20.6004 14.2758 19.5417C16.6957 18.4829 19.5158 19.5864 20.5745 22.0063Z" fill="url(#paint1_linear)"/>
<path d="M49.6198 8.90783C50.2283 9.77086 50.1373 10.8826 49.4164 11.3909C48.6955 11.8993 47.6178 11.6117 47.0093 10.7487C46.4007 9.88567 46.4918 8.77395 47.2126 8.26561C47.9335 7.75726 49.0112 8.0448 49.6198 8.90783Z" fill="url(#paint2_linear)"/>
<path d="M60.7673 31.6863C61.7135 32.0157 62.1111 33.3441 61.6553 34.6532C61.1995 35.9623 60.0629 36.7564 59.1167 36.427C58.1705 36.0975 57.7729 34.7692 58.2287 33.4601C58.6845 32.151 59.8211 31.3568 60.7673 31.6863Z" fill="url(#paint3_linear)"/>
<path d="M32.0412 1.13172C32.1022 1.66539 31.0353 2.22576 29.6581 2.38334C28.2809 2.54092 27.115 2.23604 27.0539 1.70237C26.9928 1.1687 28.0598 0.608329 29.437 0.450749C30.8142 0.293169 31.9801 0.598049 32.0412 1.13172Z" fill="url(#paint4_linear)"/>
<path d="M43.7093 48.9559C44.3773 52.434 41.5735 55.8961 37.447 56.6886C33.3204 57.4811 29.4336 55.304 28.7656 51.8259C28.0977 48.3478 30.9014 44.8858 35.028 44.0932C39.1546 43.3007 43.0413 45.4778 43.7093 48.9559Z" fill="url(#paint5_linear)"/>
<path d="M22.46 1.36845C22.6674 1.7929 21.4311 2.82314 19.6987 3.66956C17.9662 4.51598 16.3937 4.85806 16.1863 4.43361C15.979 4.00916 17.2153 2.97891 18.9477 2.13249C20.6801 1.28607 22.2526 0.943998 22.46 1.36845Z" fill="#8A0F18"/>
<path d="M22.7319 1.92627C23.0898 2.6587 21.9754 3.93862 20.243 4.78505C18.5106 5.63148 16.8161 5.72389 16.4583 4.99145C16.1004 4.25902 17.2147 2.9791 18.9472 2.13267C20.6796 1.28624 22.3741 1.19383 22.7319 1.92627Z" fill="#8A0F18"/>
<path d="M21.4684 1.45607C21.5287 1.57957 20.594 2.16025 19.3807 2.75305C18.1674 3.34585 17.1349 3.7263 17.0745 3.6028C17.0142 3.4793 17.9489 2.89862 19.1622 2.30582C20.3755 1.71301 21.408 1.33257 21.4684 1.45607Z" fill="#480307"/>
<path d="M0.785432 35.6779C1.52086 35.454 2.85801 37.7058 3.77204 40.7075C4.68607 43.7092 4.83085 46.3241 4.09543 46.5481C3.36 46.772 2.02285 44.5202 1.10882 41.5185C0.194792 38.5168 0.0500054 35.9019 0.785432 35.6779Z" fill="url(#paint6_linear)"/>
<path d="M1.75196 35.3836C3.02102 34.9972 4.79079 37.1173 5.70483 40.1191C6.61888 43.1208 6.33107 45.8674 5.06201 46.2539C3.79294 46.6403 2.02318 44.5202 1.10913 41.5184C0.19509 38.5167 0.482892 35.7701 1.75196 35.3836Z" fill="url(#paint7_linear)"/>
<path d="M0.670978 37.2935C0.884959 37.2283 1.57737 38.8798 2.21752 40.9821C2.85767 43.0844 3.20315 44.8415 2.98917 44.9067C2.77519 44.9718 2.08278 43.3204 1.44263 41.2181C0.802475 39.1157 0.456997 37.3586 0.670978 37.2935Z" fill="#350003"/>
<path d="M27.0065 61.6C27.0353 61.1929 29.6006 60.9133 32.7362 60.9756C35.8718 61.0379 38.3904 61.4184 38.3616 61.8256C38.3328 62.2327 35.7675 62.5123 32.6319 62.45C29.4963 62.3877 26.9777 62.0072 27.0065 61.6Z" fill="url(#paint8_linear)"/>
<path d="M27.0439 61.0649C27.0936 60.3623 29.6758 59.8433 32.8114 59.9055C35.947 59.9678 38.4486 60.5879 38.3989 61.2904C38.3493 61.993 35.7671 62.5121 32.6315 62.4498C29.4959 62.3875 26.9943 61.7675 27.0439 61.0649Z" fill="url(#paint9_linear)"/>
<path d="M28.4961 61.9373C28.5044 61.8189 30.2915 61.7582 32.4876 61.8019C34.6836 61.8455 36.4571 61.9768 36.4487 62.0953C36.4404 62.2137 34.6533 62.2744 32.4572 62.2308C30.2612 62.1872 28.4877 62.0558 28.4961 61.9373Z" fill="#150303"/>
<path d="M59.3072 48.5378C58.696 48.2595 59.1215 46.0116 60.2575 43.517C61.3935 41.0224 62.8099 39.2257 63.4211 39.504C64.0323 39.7824 63.6068 42.0303 62.4708 44.5249C61.3348 47.0195 59.9184 48.8161 59.3072 48.5378Z" fill="url(#paint10_linear)"/>
<path d="M58.5043 48.1725C57.4497 47.6922 57.5157 45.2806 58.6517 42.786C59.7877 40.2913 61.5636 38.6584 62.6183 39.1387C63.6729 39.619 63.6069 42.0306 62.4709 44.5252C61.3349 47.0199 59.559 48.6528 58.5043 48.1725Z" fill="url(#paint11_linear)"/>
<path d="M60.3155 47.5458C60.1376 47.4648 60.6385 45.9829 61.4341 44.2357C62.2297 42.4886 63.0188 41.138 63.1966 41.2189C63.3745 41.2999 62.8737 42.7819 62.078 44.529C61.2824 46.2761 60.4933 47.6268 60.3155 47.5458Z" fill="#130406"/>
<path d="M59.4723 13.9165C59.1266 14.1522 58.0664 13.1993 57.1045 11.7881C56.1425 10.377 55.6429 9.04193 55.9886 8.80623C56.3343 8.57054 57.3945 9.52344 58.3565 10.9346C59.3185 12.3458 59.818 13.6808 59.4723 13.9165Z" fill="url(#paint12_linear)"/>
<path d="M59.0187 14.2258C58.4221 14.6325 57.1586 13.8183 56.1967 12.4071C55.2347 10.996 54.9384 9.52235 55.535 9.11565C56.1316 8.70894 57.3951 9.52319 58.3571 10.9343C59.3191 12.3455 59.6153 13.8191 59.0187 14.2258Z" fill="url(#paint13_linear)"/>
<path d="M59.2697 13.0586C59.1691 13.1272 58.5413 12.3816 57.8676 11.3932C57.1938 10.4049 56.7291 9.54808 56.8297 9.4795C56.9303 9.41092 57.5581 10.1565 58.2319 11.1449C58.9057 12.1332 59.3703 12.99 59.2697 13.0586Z" fill="#340409"/>
<path d="M40.1066 26.9125C40.1066 28.5634 38.7683 29.9016 37.1174 29.9016C35.4665 29.9016 34.1282 28.5634 34.1282 26.9125C34.1282 25.2617 35.4665 23.9234 37.1174 23.9234C38.7683 23.9234 40.1066 25.2617 40.1066 26.9125Z" fill="#6C0C14"/>
<path d="M14.2803 48.7538C13.5298 49.4003 12.0479 48.9105 10.9704 47.6598C9.89287 46.409 9.62772 44.871 10.3782 44.2245C11.1286 43.578 12.6105 44.0679 13.688 45.3186C14.7656 46.5693 15.0307 48.1073 14.2803 48.7538Z" fill="#5B0C14"/>
<path d="M37.7148 6.58617C37.7148 7.57666 36.3765 8.37962 34.7256 8.37962C33.0747 8.37962 31.7364 7.57666 31.7364 6.58617C31.7364 5.59568 33.0747 4.79272 34.7256 4.79272C36.3765 4.79272 37.7148 5.59568 37.7148 6.58617Z" fill="#8B0F19"/>
<path d="M55.3554 44.4053C56.0066 45.1517 55.5261 46.6366 54.2822 47.722C53.0382 48.8073 51.5019 49.0821 50.8507 48.3358C50.1995 47.5894 50.68 46.1045 51.9239 45.0192C53.1678 43.9338 54.7042 43.659 55.3554 44.4053Z" fill="#440A11"/>
<defs>
<linearGradient id="paint0_linear" x1="20.4906" y1="2.61351" x2="45.4069" y2="59.577" gradientUnits="userSpaceOnUse">
<stop stop-color="#8D0F19"/>
<stop offset="1" stop-color="#23070C"/>
</linearGradient>
<linearGradient id="paint1_linear" x1="14.2758" y1="19.5417" x2="18.1099" y2="28.305" gradientUnits="userSpaceOnUse">
<stop stop-color="#1D0A0F"/>
<stop offset="1" stop-color="#7A121D"/>
</linearGradient>
<linearGradient id="paint2_linear" x1="47.2127" y1="8.26571" x2="49.4166" y2="11.3909" gradientUnits="userSpaceOnUse">
<stop stop-color="#18090F"/>
<stop offset="1" stop-color="#A21421"/>
</linearGradient>
<linearGradient id="paint3_linear" x1="58.2287" y1="33.4602" x2="61.6553" y2="34.6532" gradientUnits="userSpaceOnUse">
<stop stop-color="#270A11"/>
<stop offset="1" stop-color="#5D0B13"/>
</linearGradient>
<linearGradient id="paint4_linear" x1="29.4369" y1="0.450821" x2="29.6581" y2="2.38341" gradientUnits="userSpaceOnUse">
<stop stop-color="#360B11"/>
<stop offset="1" stop-color="#A1141F"/>
</linearGradient>
<linearGradient id="paint5_linear" x1="32.634" y1="44.6368" x2="38.9325" y2="56.289" gradientUnits="userSpaceOnUse">
<stop stop-color="#15090F"/>
<stop offset="1" stop-color="#530D16"/>
</linearGradient>
<linearGradient id="paint6_linear" x1="4.23636" y1="46.6408" x2="1.24721" y2="35.2821" gradientUnits="userSpaceOnUse">
<stop stop-color="#540B12"/>
<stop offset="1" stop-color="#660C14"/>
</linearGradient>
<linearGradient id="paint7_linear" x1="5.27787" y1="46.3238" x2="2.10493" y2="35.009" gradientUnits="userSpaceOnUse">
<stop stop-color="#540B12"/>
<stop offset="1" stop-color="#660C14"/>
</linearGradient>
<linearGradient id="paint8_linear" x1="38.9111" y1="61.5866" x2="26.9852" y2="62.1922" gradientUnits="userSpaceOnUse">
<stop stop-color="#24070C"/>
<stop offset="1" stop-color="#2C080D"/>
</linearGradient>
<linearGradient id="paint9_linear" x1="38.9613" y1="60.8705" x2="26.9926" y2="60.8677" gradientUnits="userSpaceOnUse">
<stop stop-color="#24070C"/>
<stop offset="1" stop-color="#2C080D"/>
</linearGradient>
<linearGradient id="paint10_linear" x1="59.2372" y1="48.4342" x2="63.4221" y2="39.4667" gradientUnits="userSpaceOnUse">
<stop stop-color="#2D080D"/>
<stop offset="1" stop-color="#38080E"/>
</linearGradient>
<linearGradient id="paint11_linear" x1="58.364" y1="48.0368" x2="62.514" y2="39.0527" gradientUnits="userSpaceOnUse">
<stop stop-color="#2D080D"/>
<stop offset="1" stop-color="#38080E"/>
</linearGradient>
<linearGradient id="paint12_linear" x1="55.6497" y1="8.37954" x2="59.8346" y2="13.7601" gradientUnits="userSpaceOnUse">
<stop stop-color="#6A0C15"/>
<stop offset="1" stop-color="#600B13"/>
</linearGradient>
<linearGradient id="paint13_linear" x1="55.1725" y1="8.70508" x2="59.2194" y2="14.201" gradientUnits="userSpaceOnUse">
<stop stop-color="#6A0C15"/>
<stop offset="1" stop-color="#600B13"/>
</linearGradient>
</defs>
</svg>
